<svg id="_2218325072240" xmlns="http://www.w3.org/2000/svg" width="504.316" height="300" viewBox="0 0 504.316 300">
  <path id="Path_91" data-name="Path 91" d="M184.917,1680.26C56.454,1672.782-46.567,1536.874,21.79,1458c53.016-61.172,123.7,27.867,189.635-16.993,101.431-69.016,265.761-81.564,287.512,5.437s-50.3,222.939-103.994,231.1-210.027,2.719-210.027,2.719Z" transform="translate(-0.005 -1385.187)" fill="#e7f3fe"/>
  <path id="Path_92" data-name="Path 92" d="M709.836,1831.326c1.358,32.626,1.018,50.3-10.876,63.892s-45.2,10.2-45.2,10.2,74.776,4.223,28.217,6.262c-28.217-6.262-66.737-16.016-53.407-42.219,34.723-15.1,4.345-9.129,16.354-46.512,10.97-34.15,45.2-27.64,53.356-13.367s11.554,21.75,11.554,21.75Z" transform="translate(-508.27 -1720.451)"/>
  <path id="Path_93" data-name="Path 93" d="M991.47,2838.483s21.976,4.3,23.11,4.078,25.149-10.875,27.64-9.288,16.993,7.7,20.164,9.063-1.813,1.813-4.3,1.813-16.766-5.892-18.351-4.758,12.462,3.4,12.462,4.3-37.609,9.515-39.874,9.515-19.712-1.585-19.712-1.585l-1.133-13.14Z" transform="translate(-805.199 -2561.084)" fill="#b7674b"/>
  <path id="Path_94" data-name="Path 94" d="M894.39,2222.86c11.838,2.324,18.806,14.85,21.072,25.824S894.39,2222.86,894.39,2222.86Z" transform="translate(-726.358 -2065.483)" fill="#6791c9"/>
  <path id="Path_95" data-name="Path 95" d="M618.475,2165.4s-22.77,15.293-35,22.771c-11.111,6.79,1.6,73.836,7.087,108.5a202.391,202.391,0,0,0,64.623,14.868h0s1.216.043,3.427.113c4.986-1.625,8.127-2.832,8.127-2.832s-4.759-25.149,1.358-65.59c4.381-28.97-11.667-47.126-20.845-59.7-23.159-31.737-28.775-18.125-28.775-18.125Z" transform="translate(-470.268 -2016.458)" fill="#75a1de"/>
  <path id="Path_96" data-name="Path 96" d="M597.909,2300.94c26.167,31.947,35.012,37.917,28.548,59.474-5.1,16.993-6.8,23.11-7.818,28.888s48.6-3.737,48.6-3.737l-.34,18.692s-19.407,9.281-37.531,16.071a209.612,209.612,0,0,1-48.015-16.115l16.557-103.271Z" transform="translate(-472.13 -2128.893)" fill="#6791c9"/>
  <path id="Path_97" data-name="Path 97" d="M1057.782,2947.013H748.167a4.047,4.047,0,1,1,0-8.094h309.615a4.047,4.047,0,1,1,0,8.094Z" transform="translate(-604.32 -2647.014)" fill="#2e5b9a"/>
  <path id="Path_98" data-name="Path 98" d="M782.562,2006.69l-11.782,34.89s12.914,35.005,23.791,27.189c3.712-2.67-1.36-23.79-1.36-23.79l7.928-28.32-18.579-9.969Z" transform="translate(-625.971 -1889.925)" fill="#c28064"/>
  <path id="Path_99" data-name="Path 99" d="M503.077,2293.6c-16.27,1.806-17.671,23.788-25.149,60.491s-5.229,60.929-1.7,65.59c8.5,11.214,103.994-27.867,115.888-27.527,8.208.235,1.36-13.593,1.36-13.593L502.4,2392.5s12.914-42.482,12.914-64.23-6.117-35.345-12.234-34.665Z" transform="translate(-384.095 -2122.916)" fill="#c28064"/>
  <path id="Path_100" data-name="Path 100" d="M986.762,2723.508c9.516-2.378,23.449-7.818,26.167-5.437s13.933,19.372,17.672,24.128-1.7,1.018-5.777-2.718a51.9,51.9,0,0,0-7.477-5.778,64.214,64.214,0,0,1-9.856,7.478c-4.759,2.717-6.457-2.719-14.613-4.079s-28.548,5.777-28.548,5.777l22.431-19.372Z" transform="translate(-783.158 -2467.178)" fill="#c28064"/>
  <path id="Path_101" data-name="Path 101" d="M508.6,2277.921c-9.969.453-17.671,8.836-20.39,21.75s-10.651,53.922-10.651,53.922-1.586,1.133,14.955,4.079a79.66,79.66,0,0,0,30.133-.453s3.4-23.336,2.493-39.422-4.531-31.268-10.421-36.477-6.117-3.4-6.117-3.4Z" transform="translate(-387.808 -2109.951)" fill="#75a1de"/>
  <path id="Path_102" data-name="Path 102" d="M831.717,2044.989l7.928-28.32-18.579-9.969-2.837,8.4c-.616,28.136,6.591,37.547,11.447,40.987,1.516,1.074,2.822.244,3.915-1.51-.8-5.1-1.877-9.591-1.877-9.591Z" transform="translate(-664.476 -1889.934)" fill="#a35c41"/>
  <path id="Path_103" data-name="Path 103" d="M882.642,1912.529c0,15.158-1.809,33.742-14.951,33.3-20.392-.68-33.241-16.531-33.241-31.687s10.662-27.447,23.813-27.447S882.642,1897.372,882.642,1912.529Z" transform="translate(-677.679 -1792.479)" fill="#c28064"/>
  <path id="Path_104" data-name="Path 104" d="M1570.5,2625.508h-76.44l31.443-69.171a5.654,5.654,0,0,1,5.148-3.316h69.372a2.207,2.207,0,0,1,2.009,3.121Z" transform="translate(-1213.365 -2333.615)" fill="#9bd6e8"/>
  <path id="Path_105" data-name="Path 105" d="M1290.477,2900.4H1149.46a8.9,8.9,0,0,1,8.9-8.9h132.122v8.9Z" transform="translate(-933.507 -2608.502)" fill="#9bd6e8"/>
  <path id="Path_106" data-name="Path 106" d="M1635.643,2553.02h-61.134a5.654,5.654,0,0,0-5.147,3.316l-31.441,69.171h68.2l31.531-69.367a2.207,2.207,0,0,0-2.008-3.121Z" transform="translate(-1248.986 -2333.614)" fill="#7bcee8"/>
  <path id="Path_107" data-name="Path 107" d="M874.183,1858.42c14.444-1.021,23,12.178,25.489,23.734,1.8,8.336.907,9.969.907,9.969s-1.586,2.266-12.914,2.944-12.687.453-12.687.453l-.678-13.14-3.4,12.687s-1.813,2.493-8.836-.907-10.2-14.726-10.2-14.726-1.586-7.477,3.851-12.462,18.464-8.552,18.464-8.552Z" transform="translate(-691.651 -1769.466)"/>
  <path id="Path_108" data-name="Path 108" d="M793.775,1958.757c-1.387,9.168-8.7,15.665-16.345,14.509s-12.714-9.523-11.327-18.691,8.7-15.665,16.345-14.51S795.162,1949.589,793.775,1958.757Z" transform="translate(-621.988 -1835.71)" fill="#d54a41"/>
  <path id="Path_109" data-name="Path 109" d="M788,1964.738c-1.283,8.49-7.291,14.62-13.42,13.694s-10.057-8.559-8.774-17.047,7.291-14.62,13.42-13.694S789.287,1956.248,788,1964.738Z" transform="translate(-621.737 -1841.935)" fill="#f39892"/>
  <path id="Path_110" data-name="Path 110" d="M796.322,1989.245c-.706,4.663-3.246,8.146-5.676,7.78s-3.829-4.447-3.124-9.11,3.246-8.148,5.676-7.78S797.025,1984.58,796.322,1989.245Z" transform="translate(-639.42 -1868.338)" fill="#f2e5de"/>
  <path id="Path_111" data-name="Path 111" d="M833.19,1855.158c6.626-24.638,29.5-21.046,35.289-17.615,4.872,2.889,5.55,6.966,5.55,6.966s-6.286-5.1-16.991-3.228c-10.158,1.774-16.2,7.76-17.05,14.388C839.553,1859.047,833.19,1855.158,833.19,1855.158Z" transform="translate(-676.656 -1750.572)" fill="#d54a41"/>
  <path id="Path_112" data-name="Path 112" d="M1788.24,2014.947h-69.019a.794.794,0,0,1-.746-1.172l14-38.464a1.855,1.855,0,0,1,1.6-1.171h69.02a.791.791,0,0,1,.742,1.171l-14,38.464a1.854,1.854,0,0,1-1.6,1.172Z" transform="translate(-1395.558 -1863.491)" fill="#9ec8ff"/>
  <path id="Path_113" data-name="Path 113" d="M1796.9,2020.912h-66.043a.739.739,0,0,1-.695-1.094l12.747-35.023a1.732,1.732,0,0,1,1.491-1.1h66.042a.739.739,0,0,1,.693,1.1l-12.744,35.023a1.741,1.741,0,0,1-1.493,1.094Z" transform="translate(-1405.052 -1871.255)" fill="#fff"/>
  <path id="Path_114" data-name="Path 114" d="M1807.621,2028.49h-62a.833.833,0,0,1-.782-1.23l10.989-30.19a1.946,1.946,0,0,1,1.678-1.23h62a.833.833,0,0,1,.781,1.23l-10.987,30.19a1.946,1.946,0,0,1-1.677,1.23Z" transform="translate(-1416.966 -1881.114)" fill="#9ec8ff"/>
  <path id="Path_115" data-name="Path 115" d="M1905.172,2033.759c-2.279,6.257-9.195,11.329-15.451,11.329s-9.482-5.073-7.209-11.329,9.2-11.329,15.454-11.329,9.482,5.073,7.2,11.329Z" transform="translate(-1528.246 -1902.708)" fill="#fff"/>
  <path id="Path_116" data-name="Path 116" d="M1910.842,2040.565c-1.965,5.388-7.919,9.754-13.307,9.754s-8.165-4.366-6.2-9.754,7.92-9.754,13.307-9.754S1912.8,2035.178,1910.842,2040.565Z" transform="translate(-1535.489 -1909.514)" fill="#9ec8ff"/>
  <path id="Path_117" data-name="Path 117" d="M1935.261,2062.167l-4.312,2.059-4.319,2.057,1.5-4.116,1.5-4.116,2.814,2.057Z" transform="translate(-1564.667 -1931.637)" fill="#fff"/>
  <path id="Path_118" data-name="Path 118" d="M1495.507,1890.465a3.833,3.833,0,0,0-3.188,2.369l-1.978,5.437a1.409,1.409,0,0,0,.026,1.27,1.112,1.112,0,0,0,.933.383h5.437a3.773,3.773,0,0,0,3.186-2.369l1.979-5.437a1.409,1.409,0,0,0-.026-1.27,1.11,1.11,0,0,0-.934-.383h-5.437Zm1.232,11.554H1491.3a3.159,3.159,0,0,1-2.651-1.275,3.441,3.441,0,0,1-.28-3.188l1.978-5.437a5.887,5.887,0,0,1,5.157-3.748h5.437a3.152,3.152,0,0,1,2.651,1.278,3.448,3.448,0,0,1,.28,3.188l-1.978,5.437a5.886,5.886,0,0,1-5.155,3.748Z" transform="translate(-1208.536 -1793.835)" fill="#9cd499"/>
  <path id="Path_119" data-name="Path 119" d="M1450.745,2013.465a3.839,3.839,0,0,0-3.188,2.369l-1.978,5.437a1.415,1.415,0,0,0,.028,1.27,1.11,1.11,0,0,0,.934.381h5.437a3.771,3.771,0,0,0,3.187-2.369l1.978-5.437a1.414,1.414,0,0,0-.026-1.27,1.112,1.112,0,0,0-.936-.383h-5.437Zm1.232,11.556h-5.437a3.161,3.161,0,0,1-2.651-1.276,3.447,3.447,0,0,1-.278-3.19l1.978-5.437a5.884,5.884,0,0,1,5.157-3.748h5.437a3.156,3.156,0,0,1,2.651,1.276,3.445,3.445,0,0,1,.28,3.188l-1.978,5.437a5.89,5.89,0,0,1-5.157,3.748Z" transform="translate(-1172.185 -1893.727)" fill="#9cd499"/>
  <path id="Path_120" data-name="Path 120" d="M1405.965,2136.475a3.772,3.772,0,0,0-3.186,2.369l-1.978,5.437a1.407,1.407,0,0,0,.028,1.27,1.11,1.11,0,0,0,.934.384h5.438a3.771,3.771,0,0,0,3.186-2.369l1.978-5.437a1.409,1.409,0,0,0-.028-1.27,1.105,1.105,0,0,0-.934-.381h-5.437Zm1.233,11.554h-5.437a3.152,3.152,0,0,1-2.649-1.275,3.44,3.44,0,0,1-.28-3.188l1.978-5.437a5.887,5.887,0,0,1,5.155-3.748h5.437a3.16,3.16,0,0,1,2.651,1.276,3.45,3.45,0,0,1,.28,3.19l-1.979,5.437a5.886,5.886,0,0,1-5.157,3.749Z" transform="translate(-1135.818 -1993.626)" fill="#9ec8ff"/>
  <path id="Path_121" data-name="Path 121" d="M1639.777,1928.54h-29.906a.692.692,0,0,1-.651-1.02,1.618,1.618,0,0,1,1.39-1.02h29.906a.692.692,0,0,1,.649,1.02,1.62,1.62,0,0,1-1.393,1.02Z" transform="translate(-1306.838 -1824.801)" fill="#9ec8ff"/>
  <path id="Path_122" data-name="Path 122" d="M1631.891,1950.249h-29.906a.691.691,0,0,1-.648-1.02,1.615,1.615,0,0,1,1.39-1.018h29.906a.69.69,0,0,1,.648,1.018A1.616,1.616,0,0,1,1631.891,1950.249Z" transform="translate(-1300.435 -1842.432)" fill="#9ec8ff"/>
  <path id="Path_123" data-name="Path 123" d="M1598.311,2042.509H1568.4a.691.691,0,0,1-.648-1.02,1.613,1.613,0,0,1,1.39-1.018h29.906a.69.69,0,0,1,.648,1.018A1.618,1.618,0,0,1,1598.311,2042.509Z" transform="translate(-1273.163 -1917.359)" fill="#9ec8ff"/>
  <path id="Path_124" data-name="Path 124" d="M1590.411,2064.209h-29.906a.692.692,0,0,1-.648-1.02,1.619,1.619,0,0,1,1.391-1.019h29.906a.691.691,0,0,1,.648,1.019,1.616,1.616,0,0,1-1.39,1.02Z" transform="translate(-1266.747 -1934.982)" fill="#9ec8ff"/>
  <path id="Path_125" data-name="Path 125" d="M1552.221,2169.128h-29.906a.691.691,0,0,1-.648-1.02,1.618,1.618,0,0,1,1.39-1.018h29.906a.69.69,0,0,1,.648,1.018A1.618,1.618,0,0,1,1552.221,2169.128Z" transform="translate(-1235.732 -2020.191)" fill="#9ec8ff"/>
  <path id="Path_126" data-name="Path 126" d="M1544.313,2190.828h-29.908a.691.691,0,0,1-.648-1.021,1.615,1.615,0,0,1,1.39-1.018h29.908a.689.689,0,0,1,.646,1.018,1.616,1.616,0,0,1-1.391,1.021Z" transform="translate(-1229.309 -2037.814)" fill="#9ec8ff"/>
  <path id="Path_127" data-name="Path 127" d="M1513.887,1891.612a1,1,0,0,1-.276-.037,1.045,1.045,0,0,1-.695-.62l-2.054-5.1a1.048,1.048,0,0,1,1.944-.784l1.537,3.816,12.131-9.351a1.048,1.048,0,0,1,1.28,1.66l-13.228,10.2A1.046,1.046,0,0,1,1513.887,1891.612Z" transform="translate(-1226.949 -1786.487)" fill="#f37168"/>
  <path id="Path_128" data-name="Path 128" d="M1469.116,2014.622a1.027,1.027,0,0,1-.274-.036,1.049,1.049,0,0,1-.7-.62l-2.053-5.1a1.048,1.048,0,1,1,1.944-.781l1.537,3.813,12.131-9.353a1.048,1.048,0,0,1,1.28,1.659l-13.226,10.2A1.051,1.051,0,0,1,1469.116,2014.622Z" transform="translate(-1190.589 -1886.386)" fill="#f37168"/>
  <path id="Path_129" data-name="Path 129" d="M2038.528,1759.188H1923.661l2.968-8.158H2041.5Z" transform="translate(-1562.255 -1682.298)" fill="#9ec8ff"/>
  <path id="Path_130" data-name="Path 130" d="M2014.82,1824.316H1899.95l2.968-8.156h114.87Z" transform="translate(-1542.999 -1735.191)" fill="#9ec8ff"/>
  <path id="Path_131" data-name="Path 131" d="M1462.964,2362.846h-84.35a1.358,1.358,0,0,1-1.276-2,3.177,3.177,0,0,1,2.734-2h84.352a1.357,1.357,0,0,1,1.274,2A3.175,3.175,0,0,1,1462.964,2362.846Z" transform="translate(-1118.469 -2175.916)" fill="#9ec8ff"/>
  <path id="Path_132" data-name="Path 132" d="M1445.716,2410.246h-84.352a1.358,1.358,0,0,1-1.276-2,3.182,3.182,0,0,1,2.733-2h84.354a1.359,1.359,0,0,1,1.275,2,3.181,3.181,0,0,1-2.733,2Z" transform="translate(-1104.461 -2214.411)" fill="#9ec8ff"/>
  <path id="Path_133" data-name="Path 133" d="M2182.239,2285.585c0-1.415,17.044-48.528,5.518-78.856-8.068-21.238-9.343-46.719-9.343-46.719s-15.713,22.509-5.095,56.913c6.536,21.175,9.2,27.041,9.767,33.27s-2.546,37.376-2.546,37.376l1.7-1.982Z" transform="translate(-1762.018 -2014.441)" fill="#9cd499"/>
  <path id="Path_134" data-name="Path 134" d="M2175.817,2159.413a57.392,57.392,0,0,0-5.619,14.072c-2.348,8.982-4,23.39,1.436,41.02,2.209,7.154,3.96,12.516,5.37,16.824,2.776,8.493,4.042,12.371,4.421,16.553.494,5.451-1.747,29.233-2.385,35.82l.518-.6c.063-.312.245-.934.706-2.491,9.845-32.91,11.471-58.465,4.821-75.956-6.839-17.99-8.824-39.252-9.27-45.24Zm2.54,126.418a.6.6,0,0,1-.208-.041.526.526,0,0,1-.314-.534c.029-.31,3.1-31.167,2.549-37.276-.369-4.065-1.622-7.906-4.374-16.323-1.411-4.311-3.166-9.677-5.373-16.838-5.523-17.89-3.829-32.522-1.441-41.646,2.6-9.905,6.448-15.488,6.609-15.722a.525.525,0,0,1,.953.274c.013.254,1.362,25.649,9.311,46.559,4.31,11.342,5.174,26.3,2.572,44.455a221.318,221.318,0,0,1-7.369,32.176c-.358,1.2-.672,2.246-.691,2.438a.459.459,0,0,1-.125.318l-1.7,1.982a.53.53,0,0,1-.4.183Z" transform="translate(-1759.837 -2012.181)" fill="#74b570"/>
  <path id="Path_135" data-name="Path 135" d="M2254.9,2282.432c-2.549-52.383,9.91-80.981,35.394-103.633s26.613-28.6,26.613-28.6-3.965,44.171-18.686,59.46-36.245,26.618-39.358,34.544-1.982,34.544-1.982,34.544l-1.982,4.814v-1.133Z" transform="translate(-1830.999 -2006.474)" fill="#9cd499"/>
  <path id="Path_136" data-name="Path 136" d="M2239.678,2632.133c-.278-.849,5.385-48.987,26.051-51.816s25.483,1.982,39.641-.283a88.375,88.375,0,0,0,17.839-4.814s-5.363,13.647-23.785,19.255c-13.023,3.964-30.015-2.549-39.925-.849s-15,22.936-15,22.936l-1.7,11.043-3.117,4.532Z" transform="translate(-1818.893 -2351.643)" fill="#9cd499"/>
  <path id="Path_137" data-name="Path 137" d="M2251.4,2349.8a.52.52,0,0,1-.518-.476c-.036-.34-2.965-34.155,11.385-60.046,7.417-13.375,15.511-21.126,23.34-28.62,7.3-6.982,14.185-13.578,19.405-24.025a.525.525,0,0,1,.939.47c-5.305,10.609-12.258,17.266-19.62,24.312-7.772,7.441-15.809,15.138-23.147,28.374-14.194,25.6-11.293,59.107-11.263,59.441a.522.522,0,0,1-.472.571l-.048,0Z" transform="translate(-1827.777 -2076.433)" fill="#74b570"/>
  <path id="Path_138" data-name="Path 138" d="M2244.994,2640.473a.546.546,0,0,1-.148-.021.53.53,0,0,1-.359-.649c5.422-18.682,11.645-29.583,19.577-34.3,7.095-4.221,14.429-2.925,22.192-1.554,1.9.335,3.862.684,5.811.938,16.863,2.21,25.094-1.887,25.171-1.928a.524.524,0,1,1,.481.932c-.342.177-8.552,4.3-25.793,2.037-1.966-.257-3.944-.607-5.854-.945-7.566-1.336-14.708-2.6-21.47,1.422-7.692,4.577-13.766,15.283-19.105,33.7a.522.522,0,0,1-.5.378Z" transform="translate(-1822.79 -2373.9)" fill="#74b570"/>
  <path id="Path_139" data-name="Path 139" d="M2388.936,2368.293a.524.524,0,0,1-.321-.937,63.464,63.464,0,0,1,24.147-10.435.532.532,0,0,1,.616.417.525.525,0,0,1-.415.613,62.231,62.231,0,0,0-23.706,10.237.535.535,0,0,1-.32.109Z" transform="translate(-1939.692 -2174.351)" fill="#74b570"/>
  <path id="Path_140" data-name="Path 140" d="M2303.773,2442.488a.524.524,0,0,1-.45-.792c7.374-12.433,16.008-15.567,34.839-21.47a.524.524,0,0,1,.316,1c-18.567,5.819-27.079,8.9-34.253,21A.521.521,0,0,1,2303.773,2442.488Z" transform="translate(-1870.53 -2225.749)" fill="#74b570"/>
  <path id="Path_141" data-name="Path 141" d="M2169.879,2821.864h-12.644a9.3,9.3,0,0,1-9.137-7.558l-4.077-21.326h39.074l-4.077,21.326A9.3,9.3,0,0,1,2169.879,2821.864Z" transform="translate(-1741.215 -2528.492)" fill="#f39892"/>
  <path id="Path_142" data-name="Path 142" d="M2183.087,2812.877h-36.808a1.049,1.049,0,1,1,0-2.1h36.808a1.049,1.049,0,0,1,0,2.1Z" transform="translate(-1742.197 -2542.948)" fill="#d54a41"/>
</svg>
