<?xml version="1.0" encoding="UTF-8"?>
<!DOCTYPE svg PUBLIC "-//W3C//DTD SVG 1.1//EN" "http://www.w3.org/Graphics/SVG/1.1/DTD/svg11.dtd">
<!-- Creator: CorelDRAW 2019 (64-Bit) -->
<svg xmlns="http://www.w3.org/2000/svg" xml:space="preserve" width="3.39103in" height="1.15131in" version="1.1" style="shape-rendering:geometricPrecision; text-rendering:geometricPrecision; image-rendering:optimizeQuality; fill-rule:evenodd; clip-rule:evenodd"
viewBox="0 0 3385.42 1149.4"
 xmlns:xlink="http://www.w3.org/1999/xlink"
 xmlns:xodm="http://www.corel.com/coreldraw/odm/2003">
 <defs>
  <style type="text/css">
   <![CDATA[
    .fil1 {fill:#042139}
    .fil3 {fill:#153E5C}
    .fil0 {fill:#387099}
    .fil2 {fill:black;fill-rule:nonzero}
   ]]>
  </style>
 </defs>
 <g id="Layer_x0020_1">
  <metadata id="CorelCorpID_0Corel-Layer"/>
  <path class="fil0" d="M372.95 328.25l511.75 161.95 -164.19 215.82c-1.1,1.12 -2.44,1.94 -3.9,2.4 -1.71,0.54 -3.73,0.51 -5.84,-0.16l-538.01 -170.25 146.7 -192.81c12.7,-16.68 33.5,-23.27 53.49,-16.95zm591.17 187.08l24.72 7.83c15.6,4.94 26.81,16.15 31.76,31.75 4.94,15.6 2.22,31.23 -7.68,44.25l-309.36 406.59c-12.7,16.68 -33.5,23.27 -53.5,16.95l-615.9 -194.91c-15.6,-4.94 -26.81,-16.15 -31.76,-31.75 -4.94,-15.6 -2.23,-31.23 7.68,-44.25l112.13 -147.37 564.9 178.76c17.88,5.66 36.27,5.49 53.13,0.16 15.68,-4.97 29.95,-14.51 41.12,-28.1 0.77,-0.85 1.52,-1.73 2.23,-2.66l180.51 -237.24z"/>
  <path class="fil1" d="M398.39 2.37l664.77 210.37c15.6,4.94 26.81,16.15 31.76,31.75 4.94,15.6 2.22,31.23 -7.68,44.25l-334.81 440.03c-12.7,16.68 -33.5,23.28 -53.5,16.95l-664.77 -210.37c-15.6,-4.94 -26.81,-16.15 -31.76,-31.75 -4.94,-15.6 -2.23,-31.23 7.68,-44.25l334.81 -440.03c12.7,-16.68 33.5,-23.28 53.49,-16.95z"/>
  <path class="fil0" d="M118.55 941.59l127.27 40.27c15.6,4.94 26.81,16.15 31.76,31.75 4.94,15.6 2.24,31.22 -7.68,44.25l-54.96 72.24c-12.7,16.68 -33.5,23.27 -53.49,16.95l-127.27 -40.27c-15.61,-4.94 -26.82,-16.15 -31.76,-31.75 -4.95,-15.6 -2.24,-31.23 7.67,-44.25l54.97 -72.24c12.7,-16.68 33.5,-23.27 53.49,-16.95z"/>
  <g id="_2218329446592">
   <path class="fil2" d="M1684.25 307.32c-53.38,0 -80.06,29.32 -80.06,87.97l0 42.5 111.7 0 0 92.92 -111.7 0 0 406.26 -123.56 0 0 -406.26 -94.89 0 0 -92.92 94.89 0 0 -48.44c0,-59.31 14.99,-104.94 44.98,-136.9 29.99,-31.96 72.98,-47.94 128.99,-47.94 30.97,0 57,3.95 78.09,11.86l0 97.86c-18.45,-4.61 -34.6,-6.92 -48.44,-6.92zm347.94 637.57c-50.74,0 -95.39,-10.55 -133.94,-31.63 -38.55,-21.09 -68.2,-51.23 -88.96,-90.44 -20.76,-39.21 -31.13,-85.17 -31.13,-137.89 0,-52.72 10.38,-98.68 31.13,-137.89 20.76,-39.21 50.41,-69.36 88.96,-90.45 38.55,-21.09 83.2,-31.63 133.94,-31.63 50.08,0 94.24,10.54 132.46,31.63 38.22,21.09 67.71,51.24 88.47,90.45 20.76,39.21 31.14,85.17 31.14,137.89 0,52.72 -10.38,98.68 -31.14,137.89 -20.76,39.21 -50.25,69.36 -88.47,90.44 -38.22,21.09 -82.38,31.63 -132.46,31.63zm-0.99 -96.87c42.17,0 74.3,-13.67 96.38,-41.02 22.08,-27.35 33.11,-68.04 33.11,-122.08 0,-53.38 -11.2,-94.07 -33.61,-122.08 -22.4,-28 -54.04,-42.01 -94.89,-42.01 -41.51,0 -73.48,14 -95.88,42.01 -22.41,28.01 -33.61,68.7 -33.61,122.08 0,54.04 11.04,94.73 33.11,122.08 22.08,27.35 53.87,41.02 95.39,41.02zm359.8 88.96l0 -727.52 122.57 0 0 727.52 -122.57 0zm257.99 0l0 -499.18 122.57 0 0 499.18 -122.57 0zm484.36 7.91c-50.74,0 -95.39,-10.55 -133.94,-31.63 -38.55,-21.09 -68.2,-51.23 -88.96,-90.44 -20.76,-39.21 -31.13,-85.17 -31.13,-137.89 0,-52.72 10.38,-98.68 31.13,-137.89 20.76,-39.21 50.41,-69.36 88.96,-90.45 38.55,-21.09 83.2,-31.63 133.94,-31.63 50.08,0 94.24,10.54 132.46,31.63 38.22,21.09 67.71,51.24 88.47,90.45 20.76,39.21 31.14,85.17 31.14,137.89 0,52.72 -10.38,98.68 -31.14,137.89 -20.76,39.21 -50.25,69.36 -88.47,90.44 -38.22,21.09 -82.38,31.63 -132.46,31.63zm-0.99 -96.87c42.17,0 74.3,-13.67 96.38,-41.02 22.08,-27.35 33.11,-68.04 33.11,-122.08 0,-53.38 -11.2,-94.07 -33.61,-122.08 -22.4,-28 -54.04,-42.01 -94.89,-42.01 -41.51,0 -73.48,14 -95.88,42.01 -22.41,28.01 -33.61,68.7 -33.61,122.08 0,54.04 11.04,94.73 33.11,122.08 22.08,27.35 53.87,41.02 95.39,41.02z"/>
   <rect class="fil3" x="2641.09" y="211.43" width="137.4" height="121.58" rx="25.08" ry="25.08"/>
  </g>
 </g>
</svg>
