<svg xmlns="http://www.w3.org/2000/svg" width="769.339" height="606.727" viewBox="0 0 769.339 606.727">
  <g id="Group_47" data-name="Group 47" transform="translate(-997 -338.14)">
    <path id="Path_5" data-name="Path 5" d="M1216.537,309.4C1328.658,15.465,1459.5-19.08,1626.378,42.12" transform="translate(-44.325 421.899)" fill="none" stroke="rgba(21,62,92,0.36)" stroke-miterlimit="2.613" stroke-width="6" stroke-dasharray="40 20" fill-rule="evenodd"/>
    <path id="Path_6" data-name="Path 6" d="M1691.46,1492.25c154.318,54.267,398.523-51.135,403.8-241.317" transform="translate(-417.983 -759.115)" fill="none" stroke="rgba(21,62,92,0.36)" stroke-miterlimit="2.613" stroke-width="6" stroke-dasharray="40 20" fill-rule="evenodd"/>
    <g id="_2218325031504" transform="translate(1459.395 338.14)">
      <path id="Path_7" data-name="Path 7" d="M3779.747,191.937s-63.98-115.229-16.088-142.116c18.373-10.316,35.662-6.99,53.208-3.664,18.942,3.59,38.181,7.18,59.41-6.392,52.756-33.727,92.749-11.148,121.333,30.838,21.451,31.506,32.813,51.887,43.573,76.42,16.759,38.208-18.77,46.925-18.77,46.925l-242.666-2.011Z" transform="translate(-3738.731 -23.439)" fill="#e7f3fe"/>
      <path id="Path_8" data-name="Path 8" d="M5568.707,1662.247l-29.168.05a1.009,1.009,0,0,1-.09-1.946l29.052-2.61c2.358-.211,4.506.7,4.569,2.048s-2,2.453-4.363,2.458Z" transform="translate(-5350.91 -1492.997)" fill="#75a1de"/>
      <path id="Path_9" data-name="Path 9" d="M5107.987,1505.726c1-.25,2.85-5.754,2.85-5.754s-21.065-7.1-30-11.732l-12.447,14.4c15.988,3.981,38.851,3.275,39.6,3.087Z" transform="translate(-4927.958 -1340.607)" fill="#c28064"/>
      <path id="Path_10" data-name="Path 10" d="M5416.163,1567.874c5.183,1.34,13.431-2.012,14.972-1.676s7.984,3.687,9.527,5.362,7.005,6.872,6.024,7.205-7.847-4.692-8.686-4.858-1.262,1-8.126,2.344-15.163-2.123-15.163-2.123l1.452-6.256Z" transform="translate(-5239.374 -1410.687)" fill="#c28064"/>
      <path id="Path_11" data-name="Path 11" d="M5510.95,1619.279s7.987-2.012,8.966-1.676,6.936,1.676,11.07,6.37a48.247,48.247,0,0,0-11.07-1.51c-1.541,0-8.966-3.185-8.966-3.185Z" transform="translate(-5325.914 -1456.898)" fill="#a35c41"/>
      <path id="Path_12" data-name="Path 12" d="M5412.868,1601.3c3.409,4.358,12.067,5.7,13.377,7.207s-3.152.868-5.509.668c-6-.5-10.184,1.928-15.037.421s-5.949-5.113-5.949-5.113l13.118-3.185Z" transform="translate(-5225.921 -1442.273)" fill="#c28064"/>
      <path id="Path_13" data-name="Path 13" d="M4616.62,828.287c-15.382,7.559-22.42,13.088-27.2,33.7s-5.026,40.22-2.514,54.8c17.075.495,66.01,2.338,66.01,2.338s-.932-29.933-5.933-53.619c-4.776-22.621-11.563-31.42-17.344-35.441s-13.022-1.778-13.022-1.778Z" transform="translate(-4493.586 -746.606)" fill="#a2dff2"/>
      <path id="Path_14" data-name="Path 14" d="M4620.364,996.116c-5.514-5.529-4.021-42.984-13.071-59.826l-16.842,31.42-5.091,26.144a118.566,118.566,0,0,0,1.572,20.612.672.672,0,0,0,.721.549c13.9-1.217,14.678-7.261,59.088-13.963C4647.789,1000.9,4624.116,999.88,4620.364,996.116Z" transform="translate(-4493.608 -844.287)" fill="#96cfe0"/>
      <path id="Path_15" data-name="Path 15" d="M4876.781,827.9c-1.949,4.547,2.011,10.5,8.268,15.194s10.056,2.122,9.72-1.564-.67-7.6-2.123-9.943-13.072-4.358-13.072-4.358-2.458-.112-2.793.671Z" transform="translate(-4755.211 -746.214)" fill="#fff"/>
      <path id="Path_16" data-name="Path 16" d="M4898.62,607.8l-5.966,22.786a5.222,5.222,0,0,0,.435,4.624c2.428,3.923,7.655,11.463,11.4,10.466,5.028-1.34,1.676-10.725,1.676-10.725l6.7-23.633-14.245-3.518Z" transform="translate(-4769.622 -548.904)" fill="#c28064"/>
      <path id="Path_17" data-name="Path 17" d="M4976.536,600.239l-5.957-2.409-1.789,4.652c.821,19.8,3.344,27.887,7.217,30.14a19.515,19.515,0,0,0-1.07-6.638l4.859-17.6Z" transform="translate(-4838.396 -539.939)" fill="#a35c41"/>
      <path id="Path_18" data-name="Path 18" d="M4994.954,549.662c-1.162,7.864-4.261,14.6-9.879,13.776s-15.264-7.414-14.1-15.277,13.773-17.284,19.391-16.455,5.752,10.091,4.591,17.958Z" transform="translate(-4840.272 -480.432)" fill="#c28064"/>
      <path id="Path_19" data-name="Path 19" d="M4488.96,985.061c.447-1.787-6.708-2.853-7.846-1.407-11.256,14.315-28.763,52.986-24.833,59.976,4.526,8.043,53.272-2.521,54.278-2.773s-1.76-7.793-1.76-7.793-27.316.505-31.925-2.6C4491.2,1003.571,4485.565,998.6,4488.96,985.061Z" transform="translate(-4377.035 -886.269)" fill="#c28064"/>
      <path id="Path_20" data-name="Path 20" d="M4538.324,919.9c-11.823,5.3-24.634,39.717-24.634,39.717s3.017.752,12.82,4.02c4.075,1.359,8.024,2.62,8.024,2.62s9.384-12.178,12.336-21.723c3.8-12.294-1.257-27.9-8.546-24.634Z" transform="translate(-4429.164 -829.156)" fill="#a2dff2"/>
      <path id="Path_21" data-name="Path 21" d="M4526.262,1262.568c11.059,1.426,17.667,5.277,21.023,7.906.505-.7,1.115-1.566,1.79-2.559a27.421,27.421,0,0,0-14.747-7.1c-2.988-.416-5.263-.687-6.991-.859-.408.968-.769,1.845-1.077,2.608Z" transform="translate(-4440.468 -1135.335)" fill="#fff"/>
      <path id="Path_22" data-name="Path 22" d="M4546.531,1226.37c-.189.43-.373.849-.551,1.259,9.714-.389,19.034,4.342,21.388,7.232.276.338.521.637.737.9.243-.372.492-.757.742-1.15a27.02,27.02,0,0,0-7.289-5.34c-5.864-2.559-14.272-2.879-15.027-2.9Z" transform="translate(-4458.201 -1105.13)" fill="#fff"/>
      <path id="Path_23" data-name="Path 23" d="M5070.625,1371.186h-12.4l-1.844-23.156h16.257Z" transform="translate(-4917.158 -1214.529)" fill="#75a1de"/>
      <path id="Path_24" data-name="Path 24" d="M4921.813,1412.134c3.435-.086,9.05-4.022,10.977-5.112s12.82-3.435,13.323-2.262-9.133,3.6-9.133,3.6l7.206.336s2.094,3.185,2.262,5.279a18.534,18.534,0,0,1-.67,5.113l-3.184-2.849s-2.6,1.423-5.866,3.351-9.134.755-11.647.25-8.38-2.344-8.38-2.344l5.111-5.363Z" transform="translate(-4791.557 -1265.253)" fill="#c28064"/>
      <path id="Path_25" data-name="Path 25" d="M4521.8,1422.348s5.559-3.212,11.146-2.43c3.2.448,3.549.97,3.352.838q1.039-1.947,1.938-3.745c-2.91.134-10.371.921-16.435,5.338Z" transform="translate(-4436.457 -1276.556)" fill="#a35c41"/>
      <path id="Path_26" data-name="Path 26" d="M6087.038,1078.37v57.064a3.747,3.747,0,0,1-4,3.435h-11.981a3.472,3.472,0,0,0-3.7,3.185H6084.6c3.712,0,6.721-2.588,6.721-5.781v-57.9h-4.286Z" transform="translate(-5826.246 -972.047)" fill="#6791c9"/>
      <path id="Path_27" data-name="Path 27" d="M6142.329,1007.792l-1.9-.363a2.034,2.034,0,0,1-1.778-2.4l14.91-57.923a2.374,2.374,0,0,1,2.789-1.527l1.9.361a2.037,2.037,0,0,1,1.778,2.4l-14.912,57.922A2.371,2.371,0,0,1,6142.329,1007.792Z" transform="translate(-5890.3 -852.599)" fill="#95bef5"/>
      <path id="Path_28" data-name="Path 28" d="M6166.183,1011.726l-.222-.044a1.575,1.575,0,0,1-1.375-1.852l15.141-58.816a1.833,1.833,0,0,1,2.155-1.18l.223.041a1.571,1.571,0,0,1,1.373,1.851l-15.138,58.819a1.837,1.837,0,0,1-2.155,1.181Z" transform="translate(-5913.634 -856.432)" fill="#75a1de"/>
      <path id="Path_29" data-name="Path 29" d="M4270.414,1704.74H4014.3a2.145,2.145,0,1,1,0-4.291h256.118a2.145,2.145,0,1,1,0,4.291Z" transform="translate(-3978.173 -1531.429)" fill="#2e5b9a"/>
      <path id="Path_30" data-name="Path 30" d="M4915.046,510.29c-11.6,7.2-4.26,14.984-7.346,28.351,1.9.651,3.966-3.085,5.289-6.022s2.5-7.2,2.938-7.052,1.175,6.758,1.175,6.758l1.763.882s2.5-4.407,2.35-5.436-2.2-6.022.293-8.373c1.6-1.509,8.226,1.764,8.226,1.764l-6.463-9.255-8.226-1.616Z" transform="translate(-4783.463 -461.222)" fill="#f09959"/>
      <path id="Path_31" data-name="Path 31" d="M4908.145,538.716a1.336,1.336,0,0,1-.444-.075,33.8,33.8,0,0,0,.835-7.727c0-3.261-.357-6.141-.357-8.76,0-4.517,1.064-8.265,6.867-11.864l8.226,1.616,6.464,9.255s-4.373-2.162-6.872-2.162a1.955,1.955,0,0,0-1.354.4,4.483,4.483,0,0,0-1.229,3.393,22.413,22.413,0,0,0,.936,4.981.805.805,0,0,1,.006.1c0,1.182-2.356,5.338-2.356,5.338l-1.763-.882s-.733-6.61-1.175-6.758a.061.061,0,0,0-.023,0c-.324,0-1,2.092-1.829,4.34-.341.923-.708,1.873-1.085,2.715-1.219,2.71-3.076,6.1-4.844,6.1Z" transform="translate(-4783.463 -461.222)" fill="#4d4d4d"/>
      <path id="Path_32" data-name="Path 32" d="M4936.039,456.146c-.588,7.052-11.518,4.844-16.6-1.467-4.848-6.024-8.836-1.873-13.661.146-8.08,3.379,1.028-16.159,17.334-13.074,12.233,2.314,13.318,9.7,12.927,14.4Z" transform="translate(-4779.042 -399.292)"/>
      <path id="Path_33" data-name="Path 33" d="M4935.158,624.315c.5,2.63-.481,5.025-2.193,5.354s-3.51-1.541-4.011-4.171.482-5.027,2.2-5.353,3.508,1.539,4.011,4.171Z" transform="translate(-4802.458 -559.972)" fill="#c28064"/>
      <path id="Path_34" data-name="Path 34" d="M5701.407,502.564h-56.724a1.173,1.173,0,0,1-1.173-1.173V468.546a1.176,1.176,0,0,1,1.173-1.176h56.724a1.176,1.176,0,0,1,1.173,1.176v32.844A1.174,1.174,0,0,1,5701.407,502.564Z" transform="translate(-5445.113 -422.628)" fill="#9ec8ff"/>
      <path id="Path_35" data-name="Path 35" d="M5715.889,551.994h-53.4a1.024,1.024,0,0,1-1.023-1.023V524.563a1.024,1.024,0,0,1,1.023-1.023h53.4a1.023,1.023,0,0,1,1.023,1.023v26.408A1.023,1.023,0,0,1,5715.889,551.994Z" transform="translate(-5461.255 -473.136)" fill="#fff"/>
      <path id="Path_36" data-name="Path 36" d="M5669.427,489.071h-1.248a.478.478,0,0,1-.479-.477v-1.028a.478.478,0,0,1,.479-.477h1.248a.478.478,0,0,1,.476.477v1.028A.478.478,0,0,1,5669.427,489.071Z" transform="translate(-5466.865 -440.36)" fill="#fff"/>
      <path id="Path_37" data-name="Path 37" d="M5709.156,489.071h-1.248a.477.477,0,0,1-.477-.477v-1.028a.477.477,0,0,1,.477-.477h1.248a.478.478,0,0,1,.478.477v1.028A.478.478,0,0,1,5709.156,489.071Z" transform="translate(-5502.592 -440.36)" fill="#fff"/>
      <path id="Path_38" data-name="Path 38" d="M5748.875,489.071h-1.248a.476.476,0,0,1-.477-.477v-1.028a.476.476,0,0,1,.477-.477h1.248a.476.476,0,0,1,.477.477v1.028A.476.476,0,0,1,5748.875,489.071Z" transform="translate(-5538.308 -440.36)" fill="#fff"/>
      <path id="Path_39" data-name="Path 39" d="M5680.306,565.076h51.319V540.347h-51.319Zm51.505.184H5680.12v-25.1h51.691Z" transform="translate(-5478.034 -488.081)" fill="#9ec8ff"/>
      <path id="Path_40" data-name="Path 40" d="M5681.05,738.116h51.505v-.185H5681.05Z" transform="translate(-5478.87 -665.919)" fill="#9ec8ff"/>
      <path id="Path_41" data-name="Path 41" d="M5681.05,688.675h51.505v-.185H5681.05Z" transform="translate(-5478.87 -621.462)" fill="#9ec8ff"/>
      <path id="Path_42" data-name="Path 42" d="M5681.05,639.236h51.505v-.185H5681.05Z" transform="translate(-5478.87 -577.005)" fill="#9ec8ff"/>
      <path id="Path_43" data-name="Path 43" d="M5681.05,589.8h51.505v-.185H5681.05Z" transform="translate(-5478.87 -532.547)" fill="#9ec8ff"/>
      <path id="Path_44" data-name="Path 44" d="M6118.15,566h.184V541.09h-.184Z" transform="translate(-5871.916 -488.918)" fill="#9ec8ff"/>
      <path id="Path_45" data-name="Path 45" d="M6045.13,566h.186V541.09h-.186Z" transform="translate(-5806.255 -488.918)" fill="#9ec8ff"/>
      <path id="Path_46" data-name="Path 46" d="M5972.13,566h.185V541.09h-.185Z" transform="translate(-5740.613 -488.918)" fill="#9ec8ff"/>
      <path id="Path_47" data-name="Path 47" d="M5899.13,566h.186V541.09h-.186Z" transform="translate(-5674.97 -488.918)" fill="#9ec8ff"/>
      <path id="Path_48" data-name="Path 48" d="M5826.13,566h.186V541.09h-.186Z" transform="translate(-5609.328 -488.918)" fill="#9ec8ff"/>
      <path id="Path_49" data-name="Path 49" d="M5753.13,566h.185V541.09h-.185Z" transform="translate(-5543.685 -488.918)" fill="#9ec8ff"/>
      <path id="Path_50" data-name="Path 50" d="M6146.783,550.892h-1.731a1.2,1.2,0,1,1,0-2.4h1.731a1.2,1.2,0,1,1,0,2.4Z" transform="translate(-5895.026 -495.572)" fill="#f39892"/>
      <path id="Path_51" data-name="Path 51" d="M6147.413,650.642h-2.99a.574.574,0,0,1-.572-.572v-1.257a.574.574,0,0,1,.572-.572h2.99a.573.573,0,0,1,.572.572v1.257A.574.574,0,0,1,6147.413,650.642Z" transform="translate(-5895.026 -585.268)" fill="#f39892"/>
      <path id="Path_52" data-name="Path 52" d="M5766.291,601.069h-4.063a.818.818,0,0,1-.817-.817v-1.914a.819.819,0,0,1,.817-.817h4.063a.82.82,0,0,1,.818.817v1.914A.82.82,0,0,1,5766.291,601.069Z" transform="translate(-5551.131 -539.66)" fill="#9ec8ff"/>
      <path id="Path_53" data-name="Path 53" d="M5772.866,605.038h-2.919a.588.588,0,0,1-.588-.588v-1.375a.588.588,0,0,1,.588-.586h2.919a.588.588,0,0,1,.589.586v1.375A.589.589,0,0,1,5772.866,605.038Z" transform="translate(-5558.279 -544.129)" fill="#fff"/>
      <path id="Path_54" data-name="Path 54" d="M6058.933,749.049h-4.064a.82.82,0,0,1-.817-.817v-1.914a.82.82,0,0,1,.817-.817h4.064a.821.821,0,0,1,.818.817v1.914A.82.82,0,0,1,6058.933,749.049Z" transform="translate(-5814.277 -672.726)" fill="#9ec8ff"/>
      <path id="Path_55" data-name="Path 55" d="M6065.534,753.009h-2.918a.588.588,0,0,1-.585-.586v-1.375a.588.588,0,0,1,.585-.589h2.918a.589.589,0,0,1,.588.589v1.375A.589.589,0,0,1,6065.534,753.009Z" transform="translate(-5821.453 -677.186)" fill="#fff"/>
      <path id="Path_56" data-name="Path 56" d="M5929.046,600.822h-3.185a.391.391,0,0,1,0-.782h3.185a.391.391,0,0,1,0,.782Z" transform="translate(-5698.656 -541.926)" fill="#9ec8ff"/>
      <path id="Path_57" data-name="Path 57" d="M5929.046,613.019h-3.185a.39.39,0,1,1,0-.779h3.185a.39.39,0,1,1,0,.779Z" transform="translate(-5698.656 -552.897)" fill="#9ec8ff"/>
      <path id="Path_58" data-name="Path 58" d="M5859.217,747.972h-3.186a.391.391,0,0,1,0-.782h3.186a.391.391,0,0,1,0,.782Z" transform="translate(-5635.864 -674.245)" fill="#9ec8ff"/>
      <path id="Path_59" data-name="Path 59" d="M5859.217,760.162h-3.186a.391.391,0,0,1,0-.782h3.186a.391.391,0,0,1,0,.782Z" transform="translate(-5635.864 -685.207)" fill="#9ec8ff"/>
      <path id="Path_60" data-name="Path 60" d="M5695.416,655.682h-3.185a.391.391,0,1,1,0-.782h3.185a.391.391,0,1,1,0,.782Z" transform="translate(-5488.572 -591.257)" fill="#9ec8ff"/>
      <path id="Path_61" data-name="Path 61" d="M5695.416,667.872h-3.185a.391.391,0,1,1,0-.782h3.185a.391.391,0,1,1,0,.782Z" transform="translate(-5488.572 -602.218)" fill="#9ec8ff"/>
      <path id="Path_62" data-name="Path 62" d="M6000.545,600.822h-3.183a.391.391,0,1,1,0-.782h3.183a.391.391,0,0,1,0,.782Z" transform="translate(-5762.95 -541.926)" fill="#9ec8ff"/>
      <path id="Path_63" data-name="Path 63" d="M6000.545,613.019h-3.183a.39.39,0,1,1,0-.779h3.183a.39.39,0,1,1,0,.779Z" transform="translate(-5762.95 -552.897)" fill="#9ec8ff"/>
      <path id="Path_64" data-name="Path 64" d="M5766.021,701.191H5761.3a.746.746,0,0,1-.744-.741v-2.12a.746.746,0,0,1,.744-.741h4.716a.745.745,0,0,1,.743.741v2.12A.745.745,0,0,1,5766.021,701.191Z" transform="translate(-5550.367 -629.645)" fill="#9cd499"/>
      <path id="Path_65" data-name="Path 65" d="M5776.863,704.357h-.013a.371.371,0,0,1-.264-.127l-.882-1a.37.37,0,1,1,.556-.488l.625.709,1.6-1.572a.371.371,0,1,1,.519.53l-1.884,1.844a.373.373,0,0,1-.26.107Z" transform="translate(-5563.901 -633.404)" fill="#fff"/>
      <path id="Path_66" data-name="Path 66" d="M5984.68,550.7h-4.716a.745.745,0,0,1-.743-.741v-2.121a.745.745,0,0,1,.743-.741h4.716a.743.743,0,0,1,.741.741v2.121A.743.743,0,0,1,5984.68,550.7Z" transform="translate(-5746.989 -494.322)" fill="#9cd499"/>
      <path id="Path_67" data-name="Path 67" d="M5995.505,553.86h-.015a.361.361,0,0,1-.264-.125l-.885-1a.371.371,0,0,1,.559-.489l.622.708,1.607-1.572a.371.371,0,0,1,.519.53l-1.884,1.844a.369.369,0,0,1-.259.1Z" transform="translate(-5760.505 -498.076)" fill="#fff"/>
      <path id="Path_68" data-name="Path 68" d="M5995.045,699.256a1.677,1.677,0,1,1-1.678-1.676A1.677,1.677,0,0,1,5995.045,699.256Z" transform="translate(-5758.202 -629.636)" fill="#9ec8ff"/>
      <path id="Path_69" data-name="Path 69" d="M5779.713,749.956a1.676,1.676,0,1,1-1.676-1.676A1.675,1.675,0,0,1,5779.713,749.956Z" transform="translate(-5564.574 -675.226)" fill="#9ec8ff"/>
      <path id="Path_70" data-name="Path 70" d="M5595.641,786.247h-34.208a.582.582,0,0,1-.582-.581V766.6a.581.581,0,0,1,.582-.581h34.208a.581.581,0,0,1,.582.581v19.066A.582.582,0,0,1,5595.641,786.247Z" transform="translate(-5370.785 -691.178)" fill="#9ec8ff"/>
      <path id="Path_71" data-name="Path 71" d="M5601.82,793.306h-32.735a.544.544,0,0,1-.544-.544V775.4a.542.542,0,0,1,.544-.541h32.735a.542.542,0,0,1,.542.541v17.361A.544.544,0,0,1,5601.82,793.306Z" transform="translate(-5377.7 -699.127)" fill="#fff"/>
      <path id="Path_72" data-name="Path 72" d="M5609.161,802.272h-30.732a.61.61,0,0,1-.609-.609V786.7a.608.608,0,0,1,.609-.609h30.732a.607.607,0,0,1,.609.609v14.965A.609.609,0,0,1,5609.161,802.272Z" transform="translate(-5386.043 -709.225)" fill="#9ec8ff"/>
      <path id="Path_73" data-name="Path 73" d="M5691.86,816.275a5.615,5.615,0,1,1-5.615-5.615A5.615,5.615,0,0,1,5691.86,816.275Z" transform="translate(-5478.492 -731.318)" fill="#fff"/>
      <path id="Path_74" data-name="Path 74" d="M5698.04,823.235a4.835,4.835,0,1,1-4.835-4.835A4.835,4.835,0,0,1,5698.04,823.235Z" transform="translate(-5485.452 -738.278)" fill="#9ec8ff"/>
      <path id="Path_75" data-name="Path 75" d="M5728.435,845.582l-1.765,1.02-1.769,1.021V843.54l1.769,1.021Z" transform="translate(-5518.301 -760.885)" fill="#fff"/>
      <path id="Path_76" data-name="Path 76" d="M5332.258,267.261h-22.122a1.005,1.005,0,1,1,0-2.011h22.122a1.005,1.005,0,0,1,0,2.011Z" transform="translate(-5144.435 -240.879)" fill="#9ec8ff"/>
      <path id="Path_77" data-name="Path 77" d="M5905.908,1110.292h-22.121a1.006,1.006,0,1,1,0-2.012h22.121a1.006,1.006,0,1,1,0,2.012Z" transform="translate(-5660.269 -998.942)" fill="#9ec8ff"/>
      <path id="Path_78" data-name="Path 78" d="M5905.908,1146.872h-22.121a1.006,1.006,0,1,1,0-2.012h22.121a1.006,1.006,0,1,1,0,2.012Z" transform="translate(-5660.269 -1031.836)" fill="#9ec8ff"/>
      <path id="Path_79" data-name="Path 79" d="M5905.908,1186.792h-22.121a1.006,1.006,0,1,1,0-2.012h22.121a1.006,1.006,0,1,1,0,2.012Z" transform="translate(-5660.269 -1067.732)" fill="#9ec8ff"/>
      <path id="Path_80" data-name="Path 80" d="M5346.5,305.512h-36.365a1.006,1.006,0,1,1,0-2.012H5346.5a1.006,1.006,0,1,1,0,2.012Z" transform="translate(-5144.435 -275.274)" fill="#9ec8ff"/>
      <path id="Path_81" data-name="Path 81" d="M4001.613,876.4c-5.782,5.279-3.269,10.558,1,20.363s5.027,46,5.027,46l-3.52-.5s.5-37.2-4.273-47.256-6.787-15.084-11.06-11.815,12.82-6.788,12.82-6.788Z" transform="translate(-3956.552 -790.433)" fill="#74b570"/>
      <path id="Path_82" data-name="Path 82" d="M3723.27,663.075c-.7-3.126-4.872-6.513-10.448-9.382.83,4.612,3.487,12.157.737,13.7-3.71,2.088-.362-8.445-1.793-14.233a68.8,68.8,0,0,0-17.334-5.686l.023.063c3.268,8.3,7.541,11.563,5.781,12.82-1.324.946-5.636-8.634-11.329-13.546-4.274-.229-7.889.349-10.028,2.043-3.306,2.618-5.525,4.94-2.2,12.91a14.948,14.948,0,0,0,7.218,2.615c7.541.755,11.06,1.007,5.781,3.521-2.585,1.229-6.918-.07-10.431-.864,1.14,2.1,2.54,4.479,4.242,7.184a26.725,26.725,0,0,0,3.534,4.5c2.43.466,4.548.473,5.671-.009,3.518-1.509,12.568-6.283,14.831-4.274,2.214,1.969-16.76,3.214-15.444,8.218,9.2,5.3,19.72,2.777,21.58-2.09,2.5-6.533,11.723-8.07,9.608-17.488Z" transform="translate(-3675.033 -583.942)" fill="#9cd499"/>
      <path id="Path_83" data-name="Path 83" d="M3964.99,1134.527c10.055-7.543,20.361-.505,25.639,7.541s1.509,26.141,1.509,26.141-2.011,0-2.011-.754,5.53-21.365-7.541-30.667c-8.176-5.818-14.077-3.016-14.831-.252s3.268,7.793,3.268,7.793l-6.033-9.8Z" transform="translate(-3935.766 -1019.65)" fill="#74b570"/>
      <path id="Path_84" data-name="Path 84" d="M4091.858,1009.421c-10.055,0-13.322,15.586-10.558,24.634s6.536,25.889,6.536,25.889l2.514-2.514s-9.552-23.629-7.289-34.187,7.792-12.315,8.8-12.315,0-1.509,0-1.509Z" transform="translate(-4039.508 -910.046)" fill="#9cd499"/>
      <path id="Path_85" data-name="Path 85" d="M4087.167,1234.7a7.28,7.28,0,0,0-2.647-2.223,19.948,19.948,0,0,0,.522,2.154c1.26,4.122,2.728,9.862,3.954,14.891.112-.643.283-1.637.548-3.167.063-.364.112-.755.146-1.171a97.405,97.405,0,0,1-2.524-10.485Z" transform="translate(-4043.249 -1110.625)" fill="#74b570"/>
      <path id="Path_86" data-name="Path 86" d="M3754.751,1128.833c-19.1-8.046-9.039-19.083-25.881-11.8a12.53,12.53,0,0,0-4.08,3.594,12.533,12.533,0,0,0,5.336.428c5.027-.755,3.268,3.268-5.027,4.275a18.607,18.607,0,0,0-3.887.819c-3.952,7.589-5.733,17.578,2.631,21.05a18.935,18.935,0,0,0,5.951,1.219c2.581-2.051-.63-13.919,3.349-12.28,3.82,1.571-1.2,10.173-.51,12.34a54.963,54.963,0,0,0,11.934-1.671,5.952,5.952,0,0,0,3.155-3.631c1.257-5.279-7.038-8.548-7.289-13.072-.231-4.159,3.04,9.151,11.707,11.112,7.837-3.662,11.542-8.63,2.611-12.389Z" transform="translate(-3713.583 -1004.677)" fill="#9cd499"/>
      <path id="Path_87" data-name="Path 87" d="M4143.339,951.592c-2.011-4.273,3.268-5.277,3.017-2.01-.223,2.9-.247,9.934,2.722,11.851a46.6,46.6,0,0,0,17.357-5.766,2.146,2.146,0,0,0-.221-1.31c-2.262-4.524-16.842-8.295-12.317-9.8,3.6-1.2,9.917,5.89,15.005,9.462,3.055-2.319,5.1-5.083,5.1-8.169,0-4.177-5.075-8.9-11.637-11.162-2.953.3-5.7,1.912-9.981,4.34-6.33,3.587-4.866-2.212,1.119-5.654a18.02,18.02,0,0,0-14.117,7.75s.359,2.254-2.027,5.742c-6.508,9.512,1,15.065,9.982,14.7-.508-2.506-2.618-7.02-4.006-9.973Z" transform="translate(-4088.559 -841.661)" fill="#9cd499"/>
      <path id="Path_88" data-name="Path 88" d="M3769.8,1158.424c-4.916,3.8-10.376,8.241-17.08,11.257s-5.363,12.847-5.363,12.847-1-8.489,4.581-11.4,9.274-6.367,13.519-7.038a61.094,61.094,0,0,0,6.591-1.34s-1.34-2.682-.559-3.687S3769.8,1158.424,3769.8,1158.424Z" transform="translate(-3739.967 -1043.976)" fill="#74b570"/>
      <path id="Path_89" data-name="Path 89" d="M3730.581,716.411c17.988,4.8,31.17,16.311,33.628,19.105s2.458,3.576,2.458,3.576l-1.9,3.576-.893-.449s1.452-3.016-2.347-6.925c-6.55-6.745-14.523-12.067-20-14.415s-10.948-4.469-10.948-4.469Z" transform="translate(-3724.982 -646.568)" fill="#74b570"/>
      <path id="Path_90" data-name="Path 90" d="M4082.979,1484.5h-6.872a8.849,8.849,0,0,1-8.848-8.848V1459.86h24.569v15.789a8.849,8.849,0,0,1-8.848,8.848Z" transform="translate(-4027.728 -1315.088)" fill="#f39892"/>
    </g>
    <g id="_2218325072240" transform="translate(997 661.386)">
      <path id="Path_91" data-name="Path 91" d="M174.735,1664.011C53.346,1656.945-44,1528.521,20.59,1453.989c50.1-57.8,116.892,26.333,179.192-16.058,95.846-65.215,251.127-77.072,271.679,5.138s-47.528,210.663-98.267,218.371-198.461,2.569-198.461,2.569Z" transform="translate(-0.005 -1385.188)" fill="#e7f3fe"/>
      <path id="Path_92" data-name="Path 92" d="M705.211,1829.491c1.284,30.829.962,47.53-10.277,60.373s-42.71,9.635-42.71,9.635,70.658,3.991,26.663,5.917c-26.663-5.917-63.062-15.134-50.466-39.894,32.811-14.265,4.106-8.626,15.454-43.951,10.366-32.269,42.712-26.118,50.418-12.631s10.918,20.552,10.918,20.552Z" transform="translate(-514.745 -1724.722)"/>
      <path id="Path_93" data-name="Path 93" d="M991.47,2838.187s20.766,4.067,21.838,3.853,23.764-10.276,26.118-8.776,16.057,7.279,19.054,8.564-1.713,1.713-4.067,1.713-15.843-5.567-17.341-4.5,11.776,3.211,11.776,4.068-35.538,8.991-37.679,8.991-18.626-1.5-18.626-1.5l-1.071-12.416Z" transform="translate(-815.457 -2576.064)" fill="#b7674b"/>
      <path id="Path_94" data-name="Path 94" d="M894.39,2222.86c11.186,2.2,17.771,14.032,19.912,24.4S894.39,2222.86,894.39,2222.86Z" transform="translate(-735.611 -2074.149)" fill="#6791c9"/>
      <path id="Path_95" data-name="Path 95" d="M616.3,2165.236s-21.516,14.451-33.077,21.517c-10.5,6.416,1.513,69.771,6.7,102.521a191.256,191.256,0,0,0,61.065,14.049h0s1.149.041,3.238.107c4.712-1.536,7.68-2.676,7.68-2.676s-4.5-23.764,1.284-61.978c4.14-27.375-11.025-44.531-19.7-56.413-21.884-29.989-27.19-17.127-27.19-17.127Z" transform="translate(-476.259 -2024.5)" fill="#75a1de"/>
      <path id="Path_96" data-name="Path 96" d="M597,2300.94c24.726,30.188,33.084,35.829,26.976,56.2-4.818,16.057-6.423,21.838-7.387,27.3s45.921-3.531,45.921-3.531l-.321,17.662s-18.339,8.77-35.465,15.186a198.064,198.064,0,0,1-45.371-15.227L597,2300.942Z" transform="translate(-478.145 -2138.367)" fill="#6791c9"/>
      <path id="Path_97" data-name="Path 97" d="M1040.51,2946.568H747.944a3.824,3.824,0,1,1,0-7.648H1040.51a3.824,3.824,0,0,1,0,7.648Z" transform="translate(-612.018 -2663.088)" fill="#2e5b9a"/>
      <path id="Path_98" data-name="Path 98" d="M781.913,2006.69l-11.133,32.969s12.2,33.077,22.48,25.692c3.508-2.523-1.285-22.48-1.285-22.48l7.492-26.76-17.556-9.42Z" transform="translate(-633.945 -1896.355)" fill="#c28064"/>
      <path id="Path_99" data-name="Path 99" d="M501.418,2293.6c-15.374,1.707-16.7,22.478-23.764,57.16s-4.941,57.574-1.6,61.978c8.028,10.6,98.268-26.333,109.507-26.011,7.756.222,1.285-12.844,1.285-12.844l-86.064,13.165s12.2-40.142,12.2-60.694-5.78-33.4-11.561-32.756Z" transform="translate(-388.988 -2132.314)" fill="#c28064"/>
      <path id="Path_100" data-name="Path 100" d="M985.527,2723.177c8.992-2.247,22.157-7.387,24.726-5.137s13.166,18.305,16.7,22.8-1.605.962-5.459-2.568a49.039,49.039,0,0,0-7.066-5.459,60.678,60.678,0,0,1-9.313,7.066c-4.5,2.567-6.1-2.569-13.808-3.854s-26.976,5.459-26.976,5.459l21.2-18.305Z" transform="translate(-793.135 -2480.961)" fill="#c28064"/>
      <path id="Path_101" data-name="Path 101" d="M506.892,2277.9c-9.42.428-16.7,8.349-19.267,20.552s-10.064,50.953-10.064,50.953-1.5,1.071,14.131,3.855a75.273,75.273,0,0,0,28.474-.428s3.212-22.051,2.356-37.251-4.282-29.546-9.848-34.469-5.78-3.212-5.78-3.212Z" transform="translate(-392.749 -2119.185)" fill="#75a1de"/>
      <path id="Path_102" data-name="Path 102" d="M830.973,2042.88l7.492-26.76-17.556-9.42-2.681,7.941c-.582,26.587,6.228,35.479,10.817,38.73,1.433,1.015,2.667.231,3.7-1.427-.755-4.82-1.774-9.063-1.774-9.063Z" transform="translate(-672.941 -1896.364)" fill="#a35c41"/>
      <path id="Path_103" data-name="Path 103" d="M879.988,1911.107c0,14.323-1.71,31.885-14.128,31.47-19.269-.643-31.41-15.621-31.41-29.942s10.075-25.935,22.5-25.935S879.988,1896.784,879.988,1911.107Z" transform="translate(-686.312 -1797.667)" fill="#c28064"/>
      <path id="Path_104" data-name="Path 104" d="M1566.291,2621.517H1494.06l29.711-65.363a5.343,5.343,0,0,1,4.864-3.133h65.552a2.086,2.086,0,0,1,1.9,2.949Z" transform="translate(-1228.822 -2345.697)" fill="#9bd6e8"/>
      <path id="Path_105" data-name="Path 105" d="M1282.711,2899.906H1149.46a8.407,8.407,0,0,1,8.406-8.406h124.847v8.406Z" transform="translate(-945.399 -2624.086)" fill="#9bd6e8"/>
      <path id="Path_106" data-name="Path 106" d="M1630.262,2553.02h-57.768a5.342,5.342,0,0,0-4.864,3.134l-29.709,65.362h64.446l29.795-65.547a2.086,2.086,0,0,0-1.9-2.949Z" transform="translate(-1264.897 -2345.696)" fill="#7bcee8"/>
      <path id="Path_107" data-name="Path 107" d="M872.943,1858.417c13.649-.965,21.731,11.507,24.085,22.427,1.7,7.877.857,9.419.857,9.419s-1.5,2.141-12.2,2.782-11.989.428-11.989.428l-.641-12.416-3.211,11.988s-1.713,2.356-8.349-.857-9.634-13.915-9.634-13.915-1.5-7.065,3.639-11.776,17.448-8.081,17.448-8.081Z" transform="translate(-700.462 -1774.362)"/>
      <path id="Path_108" data-name="Path 108" d="M792.239,1957.72c-1.31,8.663-8.223,14.8-15.445,13.71s-12.013-9-10.7-17.662,8.223-14.8,15.445-13.711S793.549,1949.057,792.239,1957.72Z" transform="translate(-629.911 -1841.449)" fill="#d54a41"/>
      <path id="Path_109" data-name="Path 109" d="M786.768,1963.794c-1.212,8.022-6.89,13.815-12.681,12.94s-9.5-8.088-8.291-16.109,6.89-13.815,12.681-12.94S787.981,1955.772,786.768,1963.794Z" transform="translate(-629.658 -1847.754)" fill="#f39892"/>
      <path id="Path_110" data-name="Path 110" d="M795.827,1988.742c-.667,4.406-3.068,7.7-5.363,7.351s-3.618-4.2-2.952-8.608,3.068-7.7,5.363-7.352S796.491,1984.334,795.827,1988.742Z" transform="translate(-647.565 -1874.493)" fill="#f2e5de"/>
      <path id="Path_111" data-name="Path 111" d="M833.19,1854.054c6.262-23.281,27.879-19.887,33.345-16.645,4.6,2.73,5.244,6.582,5.244,6.582s-5.94-4.816-16.056-3.05c-9.6,1.676-15.308,7.332-16.111,13.6C839.2,1857.728,833.19,1854.054,833.19,1854.054Z" transform="translate(-685.276 -1755.227)" fill="#d54a41"/>
      <path id="Path_112" data-name="Path 112" d="M1784.395,2012.7h-65.219a.75.75,0,0,1-.7-1.108l13.229-36.345a1.753,1.753,0,0,1,1.51-1.106h65.219a.748.748,0,0,1,.7,1.106l-13.226,36.345a1.751,1.751,0,0,1-1.509,1.108Z" transform="translate(-1413.336 -1869.584)" fill="#9ec8ff"/>
      <path id="Path_113" data-name="Path 113" d="M1793.221,2018.863h-62.407a.7.7,0,0,1-.656-1.033l12.045-33.095a1.636,1.636,0,0,1,1.409-1.035h62.405a.7.7,0,0,1,.655,1.035l-12.042,33.095a1.645,1.645,0,0,1-1.411,1.033Z" transform="translate(-1422.95 -1877.447)" fill="#fff"/>
      <path id="Path_114" data-name="Path 114" d="M1804.16,2026.693h-58.586a.787.787,0,0,1-.739-1.163L1755.219,1997a1.839,1.839,0,0,1,1.585-1.163h58.587a.787.787,0,0,1,.738,1.163l-10.382,28.527a1.838,1.838,0,0,1-1.585,1.163Z" transform="translate(-1435.017 -1887.432)" fill="#9ec8ff"/>
      <path id="Path_115" data-name="Path 115" d="M1903.884,2033.135c-2.154,5.912-8.688,10.705-14.6,10.705s-8.96-4.793-6.812-10.705,8.692-10.705,14.6-10.705,8.96,4.793,6.807,10.705Z" transform="translate(-1547.714 -1909.301)" fill="#fff"/>
      <path id="Path_116" data-name="Path 116" d="M1909.733,2040.028c-1.857,5.092-7.483,9.217-12.574,9.217s-7.715-4.125-5.862-9.217,7.484-9.217,12.575-9.217S1911.586,2034.938,1909.733,2040.028Z" transform="translate(-1555.049 -1916.194)" fill="#9ec8ff"/>
      <path id="Path_117" data-name="Path 117" d="M1934.786,2061.94l-4.074,1.946-4.081,1.944,1.42-3.89,1.415-3.889,2.659,1.944Z" transform="translate(-1584.599 -1938.598)" fill="#fff"/>
      <path id="Path_118" data-name="Path 118" d="M1495.1,1890.35a3.622,3.622,0,0,0-3.013,2.239l-1.869,5.138a1.332,1.332,0,0,0,.025,1.2,1.051,1.051,0,0,0,.882.362h5.138a3.565,3.565,0,0,0,3.011-2.239l1.87-5.137a1.331,1.331,0,0,0-.025-1.2,1.048,1.048,0,0,0-.882-.362H1495.1Zm1.165,10.918h-5.137a2.985,2.985,0,0,1-2.505-1.205,3.251,3.251,0,0,1-.264-3.013l1.869-5.137a5.564,5.564,0,0,1,4.873-3.542h5.138a2.979,2.979,0,0,1,2.5,1.208,3.259,3.259,0,0,1,.265,3.012l-1.869,5.138a5.562,5.562,0,0,1-4.872,3.542Z" transform="translate(-1223.931 -1799.041)" fill="#9cd499"/>
      <path id="Path_119" data-name="Path 119" d="M1450.338,2013.35a3.628,3.628,0,0,0-3.012,2.239l-1.869,5.138a1.337,1.337,0,0,0,.027,1.2,1.049,1.049,0,0,0,.882.36h5.137a3.563,3.563,0,0,0,3.011-2.239l1.869-5.137a1.336,1.336,0,0,0-.025-1.2,1.051,1.051,0,0,0-.884-.362h-5.138Zm1.165,10.92h-5.137a2.987,2.987,0,0,1-2.5-1.206,3.258,3.258,0,0,1-.263-3.014l1.869-5.138a5.56,5.56,0,0,1,4.873-3.542h5.138a2.982,2.982,0,0,1,2.5,1.206,3.255,3.255,0,0,1,.265,3.012l-1.869,5.138a5.565,5.565,0,0,1-4.873,3.542Z" transform="translate(-1187.117 -1900.205)" fill="#9cd499"/>
      <path id="Path_120" data-name="Path 120" d="M1405.558,2136.36a3.564,3.564,0,0,0-3.011,2.239l-1.869,5.138a1.33,1.33,0,0,0,.026,1.2,1.049,1.049,0,0,0,.882.362h5.138a3.563,3.563,0,0,0,3.01-2.239l1.87-5.138a1.331,1.331,0,0,0-.027-1.2,1.045,1.045,0,0,0-.882-.36h-5.138Zm1.165,10.918h-5.137a2.978,2.978,0,0,1-2.5-1.205,3.251,3.251,0,0,1-.265-3.013l1.869-5.138a5.563,5.563,0,0,1,4.871-3.542h5.138a2.987,2.987,0,0,1,2.5,1.206,3.26,3.26,0,0,1,.265,3.015l-1.87,5.137a5.562,5.562,0,0,1-4.873,3.542Z" transform="translate(-1150.288 -2001.377)" fill="#9ec8ff"/>
      <path id="Path_121" data-name="Path 121" d="M1638.091,1928.428h-28.259a.654.654,0,0,1-.615-.964,1.529,1.529,0,0,1,1.314-.964h28.259a.654.654,0,0,1,.613.964,1.531,1.531,0,0,1-1.316.964Z" transform="translate(-1323.486 -1830.402)" fill="#9ec8ff"/>
      <path id="Path_122" data-name="Path 122" d="M1630.2,1950.136h-28.259a.653.653,0,0,1-.613-.964,1.526,1.526,0,0,1,1.314-.962h28.259a.652.652,0,0,1,.612.962A1.527,1.527,0,0,1,1630.2,1950.136Z" transform="translate(-1317.001 -1848.257)" fill="#9ec8ff"/>
      <path id="Path_123" data-name="Path 123" d="M1596.625,2042.4h-28.259a.653.653,0,0,1-.612-.964,1.525,1.525,0,0,1,1.314-.962h28.259a.652.652,0,0,1,.612.962A1.529,1.529,0,0,1,1596.625,2042.4Z" transform="translate(-1289.382 -1924.139)" fill="#9ec8ff"/>
      <path id="Path_124" data-name="Path 124" d="M1588.725,2064.1h-28.259a.654.654,0,0,1-.613-.964,1.529,1.529,0,0,1,1.314-.962h28.259a.652.652,0,0,1,.612.962,1.527,1.527,0,0,1-1.313.964Z" transform="translate(-1282.885 -1941.987)" fill="#9ec8ff"/>
      <path id="Path_125" data-name="Path 125" d="M1550.535,2169.016h-28.259a.653.653,0,0,1-.612-.964,1.529,1.529,0,0,1,1.314-.962h28.259a.652.652,0,0,1,.612.962A1.529,1.529,0,0,1,1550.535,2169.016Z" transform="translate(-1251.474 -2028.28)" fill="#9ec8ff"/>
      <path id="Path_126" data-name="Path 126" d="M1542.627,2190.716h-28.261a.653.653,0,0,1-.612-.964,1.526,1.526,0,0,1,1.314-.962h28.261a.652.652,0,0,1,.611.962,1.527,1.527,0,0,1-1.314.964Z" transform="translate(-1244.969 -2046.127)" fill="#9ec8ff"/>
      <path id="Path_127" data-name="Path 127" d="M1513.716,1890.935a.952.952,0,0,1-.261-.035.988.988,0,0,1-.656-.586l-1.941-4.816a.99.99,0,0,1,1.837-.741l1.452,3.606,11.463-8.836a.99.99,0,0,1,1.209,1.568l-12.5,9.634A.988.988,0,0,1,1513.716,1890.935Z" transform="translate(-1242.58 -1791.599)" fill="#f37168"/>
      <path id="Path_128" data-name="Path 128" d="M1468.945,2013.946a.974.974,0,0,1-.259-.034.991.991,0,0,1-.659-.586l-1.94-4.816a.99.99,0,1,1,1.837-.738l1.452,3.6,11.463-8.838a.99.99,0,0,1,1.209,1.568l-12.5,9.634A.993.993,0,0,1,1468.945,2013.946Z" transform="translate(-1205.756 -1892.771)" fill="#f37168"/>
      <path id="Path_129" data-name="Path 129" d="M2032.2,1758.739H1923.661l2.8-7.708H2035.01Z" transform="translate(-1582.157 -1686.083)" fill="#9ec8ff"/>
      <path id="Path_130" data-name="Path 130" d="M2008.495,1823.867H1899.95l2.8-7.706H2011.3Z" transform="translate(-1562.656 -1739.65)" fill="#9ec8ff"/>
      <path id="Path_131" data-name="Path 131" d="M1458.242,2362.625h-79.705a1.284,1.284,0,0,1-1.205-1.893,3,3,0,0,1,2.583-1.892h79.707a1.283,1.283,0,0,1,1.2,1.892A3,3,0,0,1,1458.242,2362.625Z" transform="translate(-1132.718 -2185.99)" fill="#9ec8ff"/>
      <path id="Path_132" data-name="Path 132" d="M1440.994,2410.026h-79.707a1.284,1.284,0,0,1-1.205-1.892,3.007,3.007,0,0,1,2.583-1.893h79.709a1.284,1.284,0,0,1,1.205,1.893,3.006,3.006,0,0,1-2.583,1.892Z" transform="translate(-1118.53 -2224.974)" fill="#9ec8ff"/>
      <path id="Path_133" data-name="Path 133" d="M2181.545,2278.67c0-1.337,16.106-45.856,5.215-74.514-7.624-20.068-8.829-44.146-8.829-44.146s-14.847,21.27-4.814,53.779c6.176,20.009,8.7,25.552,9.229,31.438s-2.406,35.318-2.406,35.318l1.6-1.873Z" transform="translate(-1784.464 -2022.457)" fill="#9cd499"/>
      <path id="Path_134" data-name="Path 134" d="M2175.329,2159.292a54.207,54.207,0,0,0-5.31,13.3c-2.219,8.488-3.783,22.1,1.356,38.761,2.088,6.76,3.742,11.827,5.074,15.9,2.624,8.026,3.82,11.69,4.178,15.642.467,5.15-1.651,27.623-2.254,33.847l.49-.57c.059-.295.231-.882.667-2.354,9.3-31.1,10.839-55.245,4.555-71.773-6.462-17-8.338-37.091-8.759-42.749Zm2.4,119.457a.561.561,0,0,1-.2-.038.5.5,0,0,1-.3-.5c.028-.293,2.932-29.45,2.408-35.224-.349-3.841-1.533-7.471-4.133-15.424-1.333-4.074-2.991-9.144-5.077-15.911-5.219-16.9-3.618-30.731-1.361-39.353,2.454-9.36,6.093-14.635,6.245-14.856a.5.5,0,0,1,.9.259c.012.24,1.287,24.236,8.8,44,4.073,10.717,4.889,24.849,2.431,42.007a209.111,209.111,0,0,1-6.963,30.4c-.339,1.138-.635,2.122-.653,2.3a.435.435,0,0,1-.118.3l-1.605,1.873a.5.5,0,0,1-.376.172Z" transform="translate(-1782.255 -2020.168)" fill="#74b570"/>
      <path id="Path_135" data-name="Path 135" d="M2254.883,2275.15c-2.409-49.5,9.364-76.522,33.444-97.926s25.147-27.024,25.147-27.024-3.746,41.739-17.657,56.186-34.249,25.152-37.19,32.642-1.873,32.642-1.873,32.642l-1.873,4.549v-1.071Z" transform="translate(-1854.324 -2014.388)" fill="#9cd499"/>
      <path id="Path_136" data-name="Path 136" d="M2239.678,2629c-.262-.8,5.089-46.289,24.617-48.963s24.079,1.873,37.458-.268a83.5,83.5,0,0,0,16.856-4.549s-5.067,12.9-22.475,18.195c-12.306,3.746-28.362-2.409-37.727-.8s-14.177,21.673-14.177,21.673l-1.6,10.435L2239.68,2629Z" transform="translate(-1842.064 -2363.955)" fill="#9cd499"/>
      <path id="Path_137" data-name="Path 137" d="M2251.352,2343.552a.491.491,0,0,1-.49-.449c-.034-.321-2.8-32.274,10.758-56.74,7.009-12.638,14.657-19.963,22.055-27.044,6.894-6.6,13.4-12.831,18.336-22.7a.5.5,0,0,1,.888.444c-5.013,10.025-11.583,16.315-18.54,22.973-7.344,7.032-14.938,14.3-21.873,26.811-13.412,24.193-10.671,55.852-10.643,56.168a.493.493,0,0,1-.446.54l-.046,0Z" transform="translate(-1851.061 -2085.239)" fill="#74b570"/>
      <path id="Path_138" data-name="Path 138" d="M2244.965,2638.389a.52.52,0,0,1-.141-.02.5.5,0,0,1-.339-.613c5.123-17.654,11-27.954,18.5-32.414,6.7-3.988,13.634-2.764,20.97-1.468,1.794.316,3.649.646,5.491.886,15.935,2.089,23.712-1.783,23.785-1.822a.5.5,0,1,1,.455.88c-.323.167-8.082,4.061-24.373,1.925-1.857-.243-3.727-.574-5.532-.893-7.149-1.263-13.9-2.458-20.288,1.344-7.268,4.325-13.008,14.442-18.053,31.84a.494.494,0,0,1-.474.357Z" transform="translate(-1846.011 -2386.496)" fill="#74b570"/>
      <path id="Path_139" data-name="Path 139" d="M2388.907,2367.667a.5.5,0,0,1-.3-.886,59.966,59.966,0,0,1,22.817-9.86.5.5,0,0,1,.583.395.5.5,0,0,1-.393.579,58.809,58.809,0,0,0-22.4,9.673.5.5,0,0,1-.3.1Z" transform="translate(-1964.402 -2184.404)" fill="#74b570"/>
      <path id="Path_140" data-name="Path 140" d="M2303.745,2441.26a.5.5,0,0,1-.426-.748c6.968-11.749,15.127-14.71,32.92-20.288a.5.5,0,0,1,.3.945c-17.545,5.5-25.588,8.411-32.367,19.848A.492.492,0,0,1,2303.745,2441.26Z" transform="translate(-1894.358 -2236.458)" fill="#74b570"/>
      <path id="Path_141" data-name="Path 141" d="M2168.455,2820.274h-11.948a8.789,8.789,0,0,1-8.634-7.142l-3.853-20.152h36.923l-3.853,20.152A8.792,8.792,0,0,1,2168.455,2820.274Z" transform="translate(-1763.396 -2543.057)" fill="#f39892"/>
      <path id="Path_142" data-name="Path 142" d="M2181,2812.762h-34.781a.991.991,0,1,1,0-1.982H2181a.991.991,0,1,1,0,1.982Z" transform="translate(-1764.391 -2557.697)" fill="#d54a41"/>
    </g>
  </g>
</svg>
