<svg xmlns="http://www.w3.org/2000/svg" width="543.654" height="435.43" viewBox="0 0 543.654 435.43"><defs><style>.a{fill:#e1f3fc;}.b{fill:#c28064;}.c{fill:#a35c41;}.d{fill:#63c7c8;}.e{fill:#4b6cb0;}.f{fill:#3f5998;}.g{fill:#3f3a70;}.h{fill:#3a3359;}.i{fill:#fefefe;}.j{fill:#37375f;}.k{fill:#cf7476;}.l{fill:#6ec9eb;}.m{fill:#61a0d3;}.n{fill:#8fd7ef;}.o,.s{fill:none;stroke-linecap:round;stroke-miterlimit:10;stroke-width:1.22px;}.o{stroke:#a35c41;}.p{fill:#e7eff4;}.q{fill:#77a5d5;}.r{fill:#fbe56f;}.s{stroke:#cf7476;}.t{fill:#42beb5;}.u{fill:#ffcc3e;}.v{fill:#b8d8e3;}</style></defs><g transform="translate(-0.004 0.01)"><path class="a" d="M76.83,428.26s-39.96-45.11-54.97-85.03C4.62,297.41,8.14,246.08,33.68,215.93c36.49-43.07,99.59-41.98,136.32-33.26,53.46,12.69,98.08-9.04,127.22-54.99,34.6-54.56,83.76-99.32,154.87-78.83s106.72,85.66,85.46,190.12c-18.31,89.95-76.58,189.29-76.58,189.29H76.84Z"/><path class="b" d="M129.35,163.61s1.82.34,9.51,18.08,17.81,37.09,17.81,37.09l-14.52,9.82-11.33-23.32-1.47-41.68Z"/><path class="c" d="M147.75,200.94a25.6,25.6,0,0,1-5.97,6.86c-4.29,3.62-7.78,4.02-7.78,4.02l-3.17-6.53,16.92-4.34Z"/><path class="d" d="M128.98,162.43c1.9.49,4.15,1.02,8.05,10.17,6.45,15.12,11.73,27.27,11.73,27.27s-6.28,7.77-19.78,10.7Z"/><path class="b" d="M65.09,335.63,54.83,417.48l10.42,1.87,18.3-81.75Z"/><path class="c" d="M83.55,337.6l-.62,2.77s-11.05,1.29-18.23-1.64l.39-3.1,18.46,1.97Z"/><path class="b" d="M105.22,337.16l4.21,80.32h10.94l3.23-82.1Z"/><path class="c" d="M109.43,417.48h1.58l-1.56-76.82s9.99-.87,14.06-3.01l.09-2.26-18.38,1.78,4.21,80.32Z"/><path class="e" d="M70.7,263.63s-9.12,69.44-8.99,70.9,22.89,3.46,24.08,3.06S98.43,283.7,98.43,283.7s3.37,52.32,4.04,53.25,24.3-1.36,24.97-2.55.28-71.67.28-71.67l-57.02.9Z"/><path class="f" d="M61.72,334.53c.09.98,10.36,2.2,17.47,2.78l.3-.14c-8.99-.59-12.35-2.91-12.18-5.51s1.87-16.08,1.87-16.08,7.03,2.09,13.32-1.33c7.3-3.97,7.17-9.75,7.17-9.75-10.5,10.47-20.49,5.91-20.49,5.91l5.77-46.83h0l-4.26.07s-9.12,69.44-8.99,70.9Z"/><path class="f" d="M113.4,336.62c-.02,0-5.55-.57-6.32-2.21s-6.87-40.94-8.63-50.71c0,0,3.37,52.32,4.04,53.25.3.42,5.41.18,10.92-.33Z"/><path class="f" d="M96.94,290.66c.92-4.22,1.5-6.95,1.5-6.95s.24,3.76.61,9.27c1.62,1.59,3.9,3.43,5.94,3.58,3.52.26,21.8-18.09,22.8-19.1-.03-8.63-.06-14.72-.06-14.72l-57.02.9s6.41,6.41,9.73,8.08,16.5,18.95,16.5,18.95Z"/><path class="g" d="M109.15,411.96c1.34,0,3.2,5.52,4.67,5.52s5.29-7.99,6.87-8.09,3.33,5.6,5.35,7.53,14.51,5.88,17.08,6.43,3.67,2.11,3.67,4.91H106.21a13.594,13.594,0,0,1,.88-6.56c1.38-3.4.72-9.74,2.06-9.74Z"/><path class="g" d="M67.14,411.96c-1.34,0-3.2,5.52-4.67,5.52s-5.29-7.99-6.87-8.09-3.32,5.6-5.35,7.53-14.51,5.88-17.08,6.43-3.67,2.11-3.67,4.91H70.08a13.594,13.594,0,0,0-.88-6.56c-1.38-3.4-.72-9.74-2.06-9.74Z"/><path class="h" d="M66.23,426.3a20.315,20.315,0,0,0-.59-4.79,15.65,15.65,0,0,1-.76-6.81c.81-1.38,1.61-2.75,2.28-2.75,1.34,0,.69,6.34,2.06,9.74a13.8,13.8,0,0,1,.96,4.61H66.24Z"/><path class="i" d="M146.55,426.3H106.12v1.96h40.67A7.357,7.357,0,0,0,146.55,426.3Z"/><path class="i" d="M70.17,426.3H29.74a7.313,7.313,0,0,0-.24,1.96H70.17Z"/><path class="b" d="M95.2,144.7v8.97c0,2.91-.98,3.91-9.4,6.92,0,0,2.31,5.01,18.55,5.01s18.55-5.01,18.55-5.01c-8.42-3.01-9.4-4.01-9.4-6.92V144.7H95.21Z"/><path class="c" d="M95.2,148.81s6.47,3.79,10.57,4.15a14.856,14.856,0,0,0,7.72-1.53V144.7H95.2Z"/><path class="j" d="M125.29,123.26a13.291,13.291,0,0,0,1.14-2.11c.79-1.89,1.89-11.4-1.03-17.29a7.546,7.546,0,0,0,4.43-3.68c1.62-2.99.78-2.48-2.27-1.97-2.99.5-8.33-.57-8.33-.57Z"/><path class="b" d="M107.67,98.68c-8.99,0-18.65,2.38-18.65,20.77a5.6,5.6,0,0,0-6.35,0c-3.83,2.72-3.44,7.67-1.32,11.24s5.69,5.55,8.73,3.84c0,0,1.19,6.88,2.12,8.33s12.43,5.95,16.14,5.95,13.23-5.03,14.68-8.2,2.38-15.61,2.38-21.69S124.61,98.68,107.67,98.68Z"/><path class="k" d="M107.67,98.68a25.034,25.034,0,0,0-9.01,1.37v2.24s1.25,4.58,8.81,6.24,13.06-1.17,14.75-3.12c-2.46-3.78-6.82-6.73-14.55-6.73Z"/><path class="g" d="M89.02,119.45a32.188,32.188,0,0,0,.99,4.3c.4.86,3.72.13,3.07-1.49s-4.29-15.37,5.58-19.97c0,0,3.72,4.37,13.18,4.37s15.36-10.67,15.61-12.94-1.46-1.86-3.96-.49-11.4,2.43-11.4,2.43a22.555,22.555,0,0,0,3.07-2.26c1.21-1.13-.12-1.59-4.69-1.28-4.95.33-13.02,0-15.58,1.08-2.17.91-9.25,8.54-10.45,10.95-1.13,2.27.65,9.54.97,14.32a5.983,5.983,0,0,1,3.61,1Z"/><path class="d" d="M106.72,163.61a14.679,14.679,0,0,1-13.76-6.04s-18.77,5.39-21.46,6.29-2.56,4.61-1.54,19.34,2.95,33.04,2.95,38.17-2.82,41.88-2.82,41.88,10.5,7.3,29.84,7.3,27.79-7.81,27.79-7.81,2.69-47.77,3.33-62.25-1.05-37.05-2.07-38.06c-1.14-1.12-13.24-4.86-13.24-4.86s.15,5.26-9.03,6.04Z"/><path class="l" d="M211.83,98.39a80.374,80.374,0,0,0-51.38,11.98,5.519,5.519,0,0,0-1.68,7.66l11.36,17.56a5.533,5.533,0,0,0,7.6,1.63,48.8,48.8,0,1,1-7.16,77.48,21.994,21.994,0,0,0-29.84.27l-6.16,5.78L86.46,265.82a5.513,5.513,0,0,0-.25,7.79l14.32,15.28a5.513,5.513,0,0,0,7.79.25l48-44.97A80.7,80.7,0,1,0,211.83,98.39Z"/><path class="m" d="M86.21,273.6l2.31,2.47a23.621,23.621,0,0,0,8.5.07c3.35-.63,4.26-2.37,4.26-2.37s5.1.77,5.66-.6-.7-1.5-3.07-2.69c0,0-8.61-6.03-12.85-8.94l-4.55,4.27a5.513,5.513,0,0,0-.25,7.79Z"/><path class="m" d="M284.11,178.53a79.622,79.622,0,0,0-2.55-19.92c3.23,23.7-1.25,63.36-37,81.96-32.24,16.77-61.82,11.58-81.64-5.22a9.743,9.743,0,0,0-13.02.51c-12.96,12.47-40.25,38.68-43.46,41.31-3.89,3.19-8.97,6.73-15.41,1.58l9.5,10.14a5.513,5.513,0,0,0,7.79.25l48-44.97a80.655,80.655,0,0,0,127.8-65.64Z"/><path class="m" d="M183.13,252.42a9.346,9.346,0,0,0,3.35-1.12,13.091,13.091,0,0,0,3.78-3.08,11.441,11.441,0,0,0,1.18-1.67,3.457,3.457,0,0,0,.47-1.16,1.648,1.648,0,0,0-.2-1.21,2.4,2.4,0,0,0-1.97-.78,22.27,22.27,0,0,0-6.93.9c-2.04.56-4.39,1.13-5.98,2.59-2.09,1.92.52,3.7,2.22,4.56a7.367,7.367,0,0,0,3.62,1.01c.16-.01.32-.02.47-.04Z"/><path class="m" d="M59,297.43a15.977,15.977,0,1,1,15.12,16.79A15.979,15.979,0,0,1,59,297.43Z"/><path class="l" d="M89.66,293.33c.02-.43.02-.85,0-1.27a15.953,15.953,0,0,0-29.41-.01,14.719,14.719,0,0,0,29.41,1.28Z"/><path class="n" d="M170.14,135.59c-2.73-7.41-6.51-17.09-5.75-19.93s33.87-25.76,79.71-6.65a80.423,80.423,0,0,0-83.65,1.36,5.519,5.519,0,0,0-1.68,7.66l11.36,17.56Z"/><path class="n" d="M226.61,221.55v-.01a48.636,48.636,0,0,1-56.03-6.85,21.994,21.994,0,0,0-29.84.27l-6.16,5.78-21.16,19.83h0c-.37.35,16.02-11.86,28.45-21.14a21.848,21.848,0,0,1,25.83-.26c6.05,4.37,13.65,8.84,23.54,10.58,18.28,3.21,28.46-3.21,35.38-8.21Z"/><path class="b" d="M170.68,252.43c4.83.3,10.49-4.87,14.02-6.68,3.91-2.01,11.89-3.45,10.87,1.4a15,15,0,0,1-5.86,9.76c-3,2.56-17.43-.14-19.02-4.49Z"/><path class="o" d="M82.22,125.25c-.18-.83,1.19-3.01,3.58-2.56,3.03.57,4.97,6.1,2.02,8.87"/><path class="o" d="M85.41,127.67c-.3-1.48,1.99-3.1,3.61-1.47"/><path class="b" d="M54.14,206.03s-5.33,13.73-6.72,17.12c-2.04,4.94-3.05,6.52,5.96,17.34s21.22,25.38,32.04,31.49c9.37,5.28,16.38,2.64,19.12.98.43-.26,1.32-.12,1.86-.22,4.77-.91-5.6-5.43-9.2-7.93a19.489,19.489,0,0,1-4.9-4.46l6.16-5.77s-.25-1.03-2.61-.61-5.02,1.65-8.35,1.92-5.27-.83-8.46-4.72-15.05-23.24-15.05-23.24l6.5-16.24-16.36-5.66Z"/><path class="c" d="M70.5,211.7s-7.09,2.9-17.52-2.66l1.17-3,16.36,5.66Z"/><path class="d" d="M73.08,164.07c-2.05-1.29-4.99-.14-8.18,6.93s-14.7,31.35-14.7,31.35,2.08,3.61,9.85,6.8a33.919,33.919,0,0,0,14.29,2.64s6.24-19.42,7.49-23.16,1.66-18.03-8.74-24.55Z"/><path class="k" d="M104.99,272.82c-3.19-.09-10.64-3.98-11.3-4.23a32.972,32.972,0,0,0,10.49,4.58,1.622,1.622,0,0,1,.81-.35Z"/><path class="c" d="M189.7,256.92c.55-.47,1.05-.92,1.52-1.37h-.01c-3.73,1.47-11.52.15-12.6-1.6s.54-3.51,2.75-6.12c-3.25,2.17-7.18,4.83-10.69,4.61,1.59,4.35,16.02,7.05,19.02,4.49Z"/><path class="h" d="M110.07,426.3a19.991,19.991,0,0,1,.6-4.79,15.65,15.65,0,0,0,.76-6.81c-.81-1.38-1.61-2.75-2.28-2.75-1.34,0-.69,6.34-2.06,9.74a13.8,13.8,0,0,0-.96,4.61h3.94Z"/><path class="p" d="M106.12,427.28v.98h40.66a8.041,8.041,0,0,0-.05-.98H106.12Z"/><path class="p" d="M70.17,427.28v.98H29.5a6.437,6.437,0,0,1,.05-.98Z"/><path class="e" d="M411.92,259.16c-.29,9.17-.9,39.39,0,74.65s3.56,68.14,3.56,68.14h10.61l11.19-121.18,35.38,121.18h10.96S473.97,299.98,460.21,258l-48.3,1.16Z"/><path class="f" d="M432.33,336.2l-.74,8.32s-7.89,3.08-19.29,1.51l-.38-12.21,20.41,2.38Z"/><path class="f" d="M437.28,280.78,422.69,395.34h4.36Z"/><path class="f" d="M432.37,270.31a46.241,46.241,0,0,0,23.88-2.53L467.6,310.4l-15.81,20.1,1.24,4.26s12.02-5.39,16.99-14.66l11.93,75.25h1.01c-2.4-23.25-11.1-101.79-22.75-137.33l-48.3,1.16a33.731,33.731,0,0,0,20.46,11.14Z"/><path class="b" d="M425.57,401.96l-.96,18.89h-8.68l-.45-18.89Z"/><path class="b" d="M482.82,401.96l2.33,18.89h-9.09l-2.67-18.89Z"/><path class="q" d="M426.95,401.96H414.82a.982.982,0,0,1-.98-.98v-4.66a.982.982,0,0,1,.98-.98h12.13a.982.982,0,0,1,.98.98v4.66A.982.982,0,0,1,426.95,401.96Z"/><path class="q" d="M483.78,401.96H471.47a.886.886,0,0,1-.88-.78l-.56-4.86a.883.883,0,0,1,.88-.98h12.31a.894.894,0,0,1,.88.78l.57,4.86a.883.883,0,0,1-.88.98Z"/><path class="r" d="M403.71,175.23c-1.14,3.51-6.59,21.74-6.59,21.74s23.31-16.25,25.56-16l-5.99,21.38s-33,17.28-38.65,14.16c-4.6-2.54-3.32-7.44,2.19-19.32,5.14-11.07,10.77-20.97,13.75-26.61l9.74,4.65Z"/><path class="j" d="M445.78,129a9.339,9.339,0,0,1,7.09.49c4.01,1.81,5.63,5.53,6.01,10.24.3,3.64,1.42,6.74,3.72,8.54s4.86,6.03,3.81,12a11.665,11.665,0,0,0,2.86,9.96s-6.87,8.52-27.57,8.52-34.53-6.13-34.53-6.13a8.011,8.011,0,0,0,0-6.08c-1.34-3.32-1.81-7.08.67-10.71s4.67-5.82,4.2-9.54-1.43-16.5,13.36-22.51,20.38,5.23,20.38,5.23Z"/><path class="b" d="M447.05,160.26s-.97,12.52-.83,14.79.71,3.27,3.41,3.98,7.31,3.85,7.31,3.85-7.31,19.88-28.2,21.16-2.65-23.87-2.65-23.87a46.081,46.081,0,0,0,5.35-1.56c1.14-.57,1.27-3.67,1.27-7.59l14.34-10.75Z"/><path class="c" d="M432.62,174.67h0c10.7,0,14.14-10.56,14.14-10.56v-.01c.16-2.19.28-3.83.28-3.83L432.7,171.02c0,1.34-.02,2.57-.08,3.66Z"/><path class="b" d="M434.53,126.51c-7.05-.07-15.34,4.3-16.42,14.66-1.02,9.8.12,18.9,1.95,22.55s5.47,7.3,7.66,7.66,14.23-.61,18.6-9.61a31.646,31.646,0,0,0,1.94-4.62,4.384,4.384,0,0,0,5.23-.37c2.55-2.19,4.26-7.9,2.8-10.46s-4.5-3.04-7.3-.61a19.389,19.389,0,0,0,.61-6c-.12-3.73-2.43-13.09-15.08-13.21Z"/><path class="s" d="M454.2,149.48a1.952,1.952,0,0,0-2.39-1.71c-2.02.38-3.32,4.07-1.35,5.92"/><path class="s" d="M452.07,151.09a1.384,1.384,0,0,0-2.41-.98"/><path class="r" d="M430.12,179.09s-5.56,17.59-3.4,18.71,21.96-19.06,21.96-19.06,8.41,2.85,10.14,3.44c3.29,1.11,5.44,1.31,4.66,4.23-1.03,3.86-.56,13.32-8.15,33.19-2.65,6.94-3.54,14.08-1.62,19.87,1.3,3.92,7.25,18.04,7.25,18.04s-24.98,19.43-49.05,1.66c0,0,1.54-32.5,4.36-39.21a13.7,13.7,0,0,1-7.11-7.76c-2.49-6.42,1.76-12.15,4.26-16.46s9.26-14.77,9.26-14.77l7.43-1.87Z"/><path class="t" d="M414.43,228.76c-.5,3.64-.92,7.88-1.28,12.02.01,0,15.58.63,24.68,8.06a35.429,35.429,0,0,1,10.81,15.14,50.928,50.928,0,0,0,11.48-5.86c-8.72-20.37-24.66-29.01-45.7-29.35Z"/><path class="m" d="M371.07,390.4a12.805,12.805,0,1,1,17.27,5.45A12.812,12.812,0,0,1,371.07,390.4Z"/><path class="l" d="M385.95,391.55a11.442,11.442,0,0,0,3.11-18,12.788,12.788,0,0,0-19.43,11.07,11.754,11.754,0,0,0,.82,2.04A11.493,11.493,0,0,0,385.95,391.55Z"/><path class="l" d="M387.47,218.9a64.376,64.376,0,0,0-30.62,29.17,4.418,4.418,0,0,0,1.95,5.97l14.99,7.51a4.428,4.428,0,0,0,5.91-1.97,39.1,39.1,0,1,1,26.56,56.44,17.622,17.622,0,0,0-20.5,12.32l-1.91,6.5-6.67,22.57a4.412,4.412,0,0,0,2.99,5.48l16.1,4.73a4.408,4.408,0,0,0,5.48-2.99l6.64-22.45a64.678,64.678,0,1,0-20.93-123.26Z"/><path class="m" d="M478.65,283.96c-1.33,7.93-11.37,35.76-33.79,45.45-13.36,5.77-28.5,6.34-36.44,6.16a7.131,7.131,0,0,0-7.05,5.2c-1.1,3.9-2.62,9.21-4,13.7-2.36,7.65-5.33,11.57-14.94,9.06l13.85,4.07a4.408,4.408,0,0,0,5.48-2.99l6.64-22.45a64.556,64.556,0,0,0,70.26-58.2Z"/><path class="n" d="M405.93,213.64a64.405,64.405,0,0,0-49.08,34.42,4.418,4.418,0,0,0,1.95,5.97l12.77,6.39c-12.55-7.43-11.02-7.79-2.07-22.4,8.9-14.54,27.27-22.5,36.43-24.39Z"/><path class="n" d="M417.67,319.72a31,31,0,0,0,22.81-12.93h0a39.032,39.032,0,0,1-34.22,9.23,17.622,17.622,0,0,0-20.5,12.32l-1.91,6.5-5.94,20.1s4.55-11.43,8.02-20.51,6.11-12.31,11.44-14.33,7.51.59,20.3-.36Z"/><path class="m" d="M466.67,239.8l-12.79,5.46L438.35,242c.14,3.7,5.98,4.37,5.98,4.37l-1.95,3.17a10.479,10.479,0,0,0,.09,1.19,38.835,38.835,0,0,1,4.62,5.83h0c4.7.22,12.08-5.26,12.08-5.26a9.11,9.11,0,0,0,.93.76c1.93-1.08,9.16-8.01,9.29-8.13-.87-1.42-1.77-2.8-2.73-4.12Z"/><path class="b" d="M454.95,240.78c-3.27,1.92-12.98,1.06-15.95.09-1.77-.58-.54,1.88.71,2.75a15.263,15.263,0,0,0,5.15,1.78c-.59.61-2.47,1.99-6.36,1.26-2.48-.78-3.44-2.05-4.78-2.74a5.672,5.672,0,0,0,.11,3.71,10.321,10.321,0,0,0,8.24,7.2c5.47.93,16.51-7.75,16.51-7.75l-3.63-6.29Z"/><path class="k" d="M454.95,240.78a14.079,14.079,0,0,0,2.61,7.06l1.02-.77-3.63-6.29Z"/><path class="b" d="M395.27,171.2s4.03-7.22,5.39-7.99c.76-.43,7.15-2.25,13.36-3.99,1.05-.29,2.05.64,2.69,1.1,1.24-.06,4.85-.44,5.9-.42,1.33.02,1.44,1.26-1.66,3.01S410,169.92,406.09,170l-3,4.92-7.81-3.73Z"/><path class="g" d="M445.78,129a14.915,14.915,0,0,0-14.46-5.53c-11.01,1.66-14.97,8.17-16.68,20.93,0,0,6.9.93,8.05,0s3.78-11.66,3.78-11.66-.09,10.8.51,11.57,6.55,1.11,7.23,0,1.36-10.22,1.36-10.22,1.02,10.02,2.98,10.93,10.45.71,10.45.71,1.17-1.82.67-7.59c-.57-6.69-3.88-9.13-3.88-9.13Z"/><path class="g" d="M449,145.73s-.75,6.8-1.39,6.85-1.49-9.22-1.49-9.22Z"/><path class="k" d="M416.7,160.33l-4.87.72,4.33-1.13Z"/><path class="u" d="M397.13,196.97s-1.31,5.04-1.86,6.19a27.454,27.454,0,0,0,4.19-7.81l-2.33,1.61Z"/><path class="k" d="M410.73,168.64a9.435,9.435,0,0,1-5.34.4l-2.93,4.47-7.18-2.31,7.81,3.73,3-4.92a13.362,13.362,0,0,0,4.64-1.37Z"/><path class="r" d="M460.21,184.21c.85-1.68,3.86-2.06,8.8,7.33,4.42,8.38,17.79,34.39,17.15,37.79-.58,3.09-24.43,16.91-27.17,18.28a16.5,16.5,0,0,1-4.26-8.22l16.39-14.35s-10.65-17.38-11.86-20.94-3.31-11.52.95-19.88Z"/><path class="k" d="M415.48,401.96h10.09l-.07,1.41S418.61,403.5,415.48,401.96Z"/><path class="k" d="M473.39,401.96h9.43s-1.59,1-9.23,1.41l-.2-1.41Z"/><path class="k" d="M433.49,246a7.007,7.007,0,0,0,5.17,1.58c3.28-.25,5.02-.99,6.19-2.19-.59.61-2.47,1.99-6.36,1.26-2.48-.78-3.44-2.05-4.78-2.74a5.229,5.229,0,0,0-.23,2.09Z"/><path class="u" d="M471.13,225.03a9.442,9.442,0,0,1,4.11-1.83s-2.92-.5-4.78.74Z"/><path class="g" d="M473.81,411.96c1.34,0,3.2,5.52,4.67,5.52s5.29-7.99,6.87-8.09,3.32,5.6,5.35,7.53,14.51,5.88,17.08,6.43,3.67,2.11,3.67,4.91H470.87a13.594,13.594,0,0,1,.88-6.56C473.13,418.3,472.47,411.96,473.81,411.96Z"/><path class="i" d="M511.21,426.3H470.78v1.96h40.67a7.772,7.772,0,0,0-.23-1.96Z"/><path class="h" d="M474.79,426.3a24.687,24.687,0,0,1,.52-6.17,25.316,25.316,0,0,0,.8-5.4c-.82-1.39-1.62-2.77-2.3-2.77-1.34,0-.68,6.34-2.06,9.74a13.8,13.8,0,0,0-.96,4.61h4Z"/><path class="p" d="M511.45,428.26H470.79v-.98H511.4A8.04,8.04,0,0,1,511.45,428.26Z"/><path class="g" d="M426.14,411.96c-1.34,0-3.2,5.52-4.67,5.52s-5.29-7.99-6.87-8.09-3.33,5.6-5.35,7.53-14.51,5.88-17.08,6.43-3.67,2.11-3.67,4.91h40.58a13.594,13.594,0,0,0-.88-6.56C426.82,418.3,427.48,411.96,426.14,411.96Z"/><path class="i" d="M388.74,426.3h40.43v1.96H388.5A7.357,7.357,0,0,1,388.74,426.3Z"/><path class="h" d="M425.16,426.3a24.687,24.687,0,0,0-.52-6.17,25.316,25.316,0,0,1-.8-5.4c.82-1.39,1.62-2.77,2.3-2.77,1.34,0,.69,6.34,2.06,9.74a13.8,13.8,0,0,1,.96,4.61h-4Z"/><path class="p" d="M388.5,428.26h40.66v-.98H388.55C388.52,427.61,388.5,427.93,388.5,428.26Z"/><path class="l" d="M291.66,228.85a36.921,36.921,0,0,0-17.03,17.28,2.535,2.535,0,0,0,1.23,3.39l8.73,4.04a2.55,2.55,0,0,0,3.36-1.23,22.417,22.417,0,1,1,21.75,32.18,22.561,22.561,0,0,1-5.51-.29,10.105,10.105,0,0,0-11.53,7.43l-.98,3.76-4.51,17.4a2.537,2.537,0,0,0,1.81,3.09l9.32,2.43a2.537,2.537,0,0,0,3.09-1.81l4.49-17.34a37.11,37.11,0,1,0-14.22-70.31Z"/><path class="m" d="M283.52,334.49a7.347,7.347,0,1,1,10,2.82A7.349,7.349,0,0,1,283.52,334.49Z"/><path class="l" d="M292.22,334.47a6.393,6.393,0,0,0,2.45-8.69,6.094,6.094,0,0,0-.71-1.01,7.333,7.333,0,0,0-11.22,4.65,6.267,6.267,0,0,0,.79,2.61,6.385,6.385,0,0,0,8.69,2.45Z"/><path class="m" d="M301.39,316.5l4.49-17.34a37.057,37.057,0,0,0,39.22-39.83c-.32,9.37-4.24,19.72-15.82,28.23a36.957,36.957,0,0,1-25.01,6.96,3.213,3.213,0,0,0-3.42,2.46c-1.12,4.7-3.27,13.76-3.63,15.82-.49,2.8-1.84,4.53-8.25,3.09l9.32,2.43a2.537,2.537,0,0,0,3.09-1.81Z"/><path class="n" d="M284.86,235.86c8.69-9.94,25.11-10.77,31.09-9.97a36.958,36.958,0,0,0-41.32,20.23,2.535,2.535,0,0,0,1.23,3.39l8.73,4.04s-4.24-3.15-5.64-4.55-2.8-3.19,5.91-13.14Z"/><path class="n" d="M318.07,282.21a22.244,22.244,0,0,1-8.37,2.29,22.561,22.561,0,0,1-5.51-.29,10.105,10.105,0,0,0-11.53,7.43l-.98,3.76-3.89,15c1.14-3.18,3.72-10.43,5.07-14.51,1.78-5.32,3.31-10.64,10.75-10.05s11.8-1.32,14.46-3.62h0Z"/><path class="l" d="M473.81,53.58A28.152,28.152,0,0,0,460.5,66.42a1.938,1.938,0,0,0,.87,2.61l6.57,3.24a1.939,1.939,0,0,0,2.58-.88,17.081,17.081,0,1,1,15.95,24.93,17.277,17.277,0,0,1-4.19-.33,7.713,7.713,0,0,0-8.93,5.44l-.82,2.84-2.04,7.05a1.943,1.943,0,0,0,1.32,2.39l7.05,2.02a1.926,1.926,0,0,0,2.39-1.32l2.02-7a28.278,28.278,0,1,0-9.49-53.83Z"/><path class="m" d="M467.32,127.78a5.6,5.6,0,1,1,7.57,2.34A5.607,5.607,0,0,1,467.32,127.78Z"/><path class="l" d="M473.95,127.93a4.861,4.861,0,0,0,2.03-6.57,5.391,5.391,0,0,0-.52-.79,5.592,5.592,0,0,0-8.64,3.33,4.924,4.924,0,0,0,.55,2.01,4.864,4.864,0,0,0,6.58,2.03Z"/><path class="m" d="M481.27,114.42l2.02-7a28.231,28.231,0,0,0,30.64-29.59c-.42,7.13-3.6,14.94-12.59,21.2a28.218,28.218,0,0,1-19.19,4.83,2.448,2.448,0,0,0-2.65,1.81c-.95,3.56-1.03,4.3-1.34,5.86-.42,2.13-1.48,3.41-6.34,2.2l7.05,2.02a1.93,1.93,0,0,0,2.39-1.32Z"/><path class="n" d="M468.49,58.8c6.81-7.4,19.33-7.73,23.88-7A28.19,28.19,0,0,0,460.5,66.43a1.938,1.938,0,0,0,.87,2.61l6.57,3.24s-3.17-2.48-4.21-3.57-2.07-2.48,4.75-9.9Z"/><path class="n" d="M492.91,94.74a16.979,16.979,0,0,1-6.42,1.58,17.277,17.277,0,0,1-4.19-.33,7.713,7.713,0,0,0-8.93,5.44l-.82,2.84-1.52,5.23c.93-2.4,1.3-1.75,2.41-4.83,1.45-4.02,2.72-8.04,8.38-7.45s9.01-.78,11.08-2.48h0Z"/><path class="l" d="M151.51,2.55A28.152,28.152,0,0,0,138.2,15.39a1.938,1.938,0,0,0,.87,2.61l6.57,3.24a1.939,1.939,0,0,0,2.58-.88,17.081,17.081,0,1,1,15.95,24.93,17.277,17.277,0,0,1-4.19-.33,7.713,7.713,0,0,0-8.93,5.44l-.82,2.84-2.04,7.05a1.938,1.938,0,0,0,1.32,2.39l7.05,2.02a1.943,1.943,0,0,0,2.39-1.32l2.02-7A28.27,28.27,0,1,0,165-.01h-3.44a27.97,27.97,0,0,0-10.08,2.55Z"/><path class="m" d="M145.02,76.75a5.6,5.6,0,1,1,7.57,2.34A5.6,5.6,0,0,1,145.02,76.75Z"/><path class="l" d="M151.65,76.9a4.853,4.853,0,0,0,2.03-6.57,5.391,5.391,0,0,0-.52-.79,5.586,5.586,0,0,0-8.63,3.33,4.923,4.923,0,0,0,.55,2.01,4.864,4.864,0,0,0,6.58,2.03Z"/><path class="m" d="M158.97,63.38l2.02-7a28.25,28.25,0,0,0,30.64-29.6c-.42,7.13-3.6,14.94-12.59,21.2a28.275,28.275,0,0,1-19.19,4.83,2.448,2.448,0,0,0-2.65,1.81c-.94,3.56-1.03,4.3-1.34,5.86-.43,2.13-1.49,3.41-6.34,2.2l7.05,2.02a1.943,1.943,0,0,0,2.39-1.32Z"/><path class="n" d="M146.19,7.77C153,.37,165.52.04,170.07.77A29.105,29.105,0,0,0,164.98,0h-3.34A28.176,28.176,0,0,0,138.2,15.39a1.938,1.938,0,0,0,.87,2.61l6.57,3.24s-3.17-2.48-4.21-3.57-2.07-2.48,4.75-9.9Z"/><path class="n" d="M170.61,43.71a16.979,16.979,0,0,1-6.42,1.58,17.277,17.277,0,0,1-4.19-.33,7.713,7.713,0,0,0-8.93,5.44l-.82,2.84-1.52,5.23c.93-2.4,1.3-1.75,2.41-4.83,1.45-4.02,2.72-8.04,8.38-7.45s9.01-.79,11.08-2.49h0Z"/><path class="l" d="M3.87,82.97a28.158,28.158,0,0,0-1.91,18.39,1.931,1.931,0,0,0,2.35,1.43l7.12-1.76a1.951,1.951,0,0,0,1.41-2.33,16.951,16.951,0,0,1,1.14-10.89,17.083,17.083,0,0,1,31.36,13.54,17.05,17.05,0,0,1-7.66,8.58,7.7,7.7,0,0,0-3.32,9.91l1.21,2.7,2.98,6.7a1.926,1.926,0,0,0,2.55.97l6.7-3a1.926,1.926,0,0,0,.97-2.55l-2.96-6.65A28.276,28.276,0,1,0,3.88,82.95Z"/><path class="m" d="M46.71,143.9A5.6,5.6,0,1,1,54,140.81,5.6,5.6,0,0,1,46.71,143.9Z"/><path class="l" d="M51.88,139.74a4.868,4.868,0,0,0-2.68-6.34,5.131,5.131,0,0,0-.9-.27,5.595,5.595,0,0,0-4.47,8.11,4.806,4.806,0,0,0,1.71,1.18,4.868,4.868,0,0,0,6.34-2.68Z"/><path class="m" d="M48.77,124.68l-2.96-6.65a28.232,28.232,0,0,0,4.37-42.37c4.27,5.73,6.87,13.75,4.03,24.32a28.192,28.192,0,0,1-11.57,16.05,2.445,2.445,0,0,0-.86,3.09c1.57,3.33,1.98,3.95,2.75,5.34,1.05,1.9,1.06,3.57-3.43,5.77l6.7-3a1.926,1.926,0,0,0,.97-2.55Z"/><path class="n" d="M3.16,90.38c.44-10.05,9.81-18.37,13.75-20.74A28.182,28.182,0,0,0,1.96,101.35a1.931,1.931,0,0,0,2.35,1.43l7.12-1.76s-4.02.15-5.52-.02-3.19-.56-2.74-10.63Z"/><path class="n" d="M44.99,102.14a16.967,16.967,0,0,1-7.31,7.8,7.7,7.7,0,0,0-3.32,9.91l1.21,2.7,2.21,4.98c-.84-2.43-.13-2.18-1.27-5.25-1.48-4.01-3.1-7.9,1.61-11.1s6.39-6.41,6.87-9.04h0Z"/><path class="l" d="M271.26,41.85A59.973,59.973,0,0,0,260.8,79.82a4.114,4.114,0,0,0,4.42,3.83l15.57-1.19a4.131,4.131,0,0,0,3.78-4.41,36.414,36.414,0,1,1,48.27,32.34,16.413,16.413,0,0,0-10.46,19.67l1.59,6.1,3.91,15.13a4.1,4.1,0,0,0,5.02,2.94l15.13-3.94a4.1,4.1,0,0,0,2.94-5.02l-3.89-15.02a60.244,60.244,0,1,0-75.82-88.39Z"/><path class="m" d="M339.88,184.91a11.932,11.932,0,1,1,16.41-3.93A11.932,11.932,0,0,1,339.88,184.91Z"/><path class="l" d="M352.2,177.98a10.373,10.373,0,0,0-3.41-14.26,10.071,10.071,0,0,0-1.81-.88,11.9,11.9,0,0,0-12.22,15.46,10.347,10.347,0,0,0,17.44-.33Z"/><path class="m" d="M350.96,145.26l-3.89-15.02a60.167,60.167,0,0,0,24.05-87.5c6.97,13.53,9.61,31.3-.06,52.53a60.106,60.106,0,0,1-29.93,29.67,5.229,5.229,0,0,0-2.9,6.19c2.13,7.54,2.78,8.99,3.9,12.19,1.53,4.36.98,7.87-9.24,10.91l15.13-3.94a4.1,4.1,0,0,0,2.94-5.02Z"/><path class="n" d="M267.17,57.18c4.45-20.96,27.05-35.15,36.17-38.75A60.033,60.033,0,0,0,260.8,79.82a4.107,4.107,0,0,0,4.42,3.83l15.57-1.19s-8.5-1.1-11.59-1.98-6.5-2.3-2.04-23.3Z"/><path class="n" d="M350.93,96.57a36.031,36.031,0,0,1-10.06,9.87,36.6,36.6,0,0,1-8.04,3.95,16.413,16.413,0,0,0-10.46,19.67l1.59,6.1,2.89,11.23c-.91-5.41.48-4.62-.82-11.47-1.7-8.95-3.74-17.69,7.28-22.76s15.67-11.22,17.62-16.58h0Z"/><path class="v" d="M29.5,428.26H1.22c-12.9,0,76.77,7.16,273.17,7.16s286.61-7.65,264.02-7.65-508.9.49-508.9.49Z"/></g></svg>