<svg xmlns="http://www.w3.org/2000/svg" width="160.396" height="54.457" viewBox="0 0 160.396 54.457"><defs><style>.a,.b{fill:#fff;}.a{fill-rule:evenodd;}</style></defs><g transform="translate(0.008 -0.002)"><path class="a" d="M17.662,326l24.246,7.673L34.129,343.9a.448.448,0,0,1-.185.114.459.459,0,0,1-.277-.008l-25.49-8.066,6.95-9.135a2.275,2.275,0,0,1,2.534-.8Zm28.009,8.864,1.171.371a2.31,2.31,0,0,1,1.141,3.6L33.326,358.1a2.276,2.276,0,0,1-2.535.8l-29.18-9.235a2.31,2.31,0,0,1-1.141-3.6l5.313-6.982,26.764,8.469a4.109,4.109,0,0,0,4.465-1.324c.036-.04.072-.082.106-.126l8.552-11.24Z" transform="translate(0 -310.444)"/><path class="a" d="M18.868.114l31.5,9.967a2.31,2.31,0,0,1,1.141,3.6L35.641,34.53a2.275,2.275,0,0,1-2.535.8l-31.5-9.967a2.31,2.31,0,0,1-1.141-3.6L16.333.918a2.274,2.274,0,0,1,2.534-.8Z" transform="translate(0)"/><path class="a" d="M5.622,939.338l6.03,1.908a2.31,2.31,0,0,1,1.141,3.6l-2.6,3.423a2.275,2.275,0,0,1-2.534.8l-6.03-1.908a2.31,2.31,0,0,1-1.141-3.6l2.6-3.423a2.275,2.275,0,0,1,2.534-.8Z" transform="translate(-0.012 -894.725)"/><g transform="translate(65.647 9.692)"><path class="b" d="M1399.883,209.381q-3.794,0-3.793,4.168v2.014h5.292v4.4h-5.292v19.248h-5.854V219.965h-4.5v-4.4h4.5v-2.3a9.124,9.124,0,0,1,2.131-6.486,7.974,7.974,0,0,1,6.111-2.271,10.6,10.6,0,0,1,3.7.562v4.636a9.639,9.639,0,0,0-2.295-.328Zm16.485,30.207a13.018,13.018,0,0,1-6.346-1.5,10.236,10.236,0,0,1-4.215-4.285,15.206,15.206,0,0,1,0-13.066,10.237,10.237,0,0,1,4.215-4.285,13.012,13.012,0,0,1,6.346-1.5,12.778,12.778,0,0,1,6.276,1.5,10.275,10.275,0,0,1,4.192,4.285,15.2,15.2,0,0,1,0,13.066,10.271,10.271,0,0,1-4.192,4.285A12.778,12.778,0,0,1,1416.367,239.588Zm-.047-4.59a5.524,5.524,0,0,0,4.566-1.943q1.569-1.944,1.569-5.784a9.084,9.084,0,0,0-1.593-5.784,6.125,6.125,0,0,0-9.038,0,11.373,11.373,0,0,0-.024,11.568A5.47,5.47,0,0,0,1416.321,235Zm17.047,4.215V204.745h5.807v34.469Zm12.223,0v-23.65h5.807v23.65Zm22.948.375a13.017,13.017,0,0,1-6.346-1.5,10.236,10.236,0,0,1-4.215-4.285,15.207,15.207,0,0,1,0-13.066,10.237,10.237,0,0,1,4.215-4.285,13.012,13.012,0,0,1,6.346-1.5,12.779,12.779,0,0,1,6.276,1.5,10.274,10.274,0,0,1,4.191,4.285,15.2,15.2,0,0,1,0,13.066,10.27,10.27,0,0,1-4.191,4.285A12.779,12.779,0,0,1,1468.539,239.588Zm-.047-4.59a5.524,5.524,0,0,0,4.566-1.943q1.569-1.944,1.569-5.784a9.084,9.084,0,0,0-1.592-5.784,6.126,6.126,0,0,0-9.038,0,11.374,11.374,0,0,0-.024,11.568A5.47,5.47,0,0,0,1468.492,235Z" transform="translate(-1385.74 -204.51)"/><rect class="b" width="6.51" height="5.76" rx="2.88" transform="translate(59.476 0.328)"/></g></g></svg>
