<svg xmlns="http://www.w3.org/2000/svg" width="84.466" height="96.979" viewBox="0 0 84.466 96.979"><defs><style>.a{fill:#e1f3fc;}.b{fill:#153e5c;}</style></defs><path class="a" d="M82.516,33.513H62.182V25.693A4.693,4.693,0,0,0,57.49,21H38.719a4.693,4.693,0,0,0-4.693,4.693v7.821H13.693A4.693,4.693,0,0,0,9,38.206v2.2c3.637,1.963,19.458,10.1,34.412,11.63V47.591a1.564,1.564,0,0,1,1.564-1.564h6.257A1.564,1.564,0,0,1,52.8,47.591v4.442C67.763,50.5,83.572,42.368,87.209,40.4v-2.2a4.693,4.693,0,0,0-4.693-4.693Zm-45.361,0V25.693a1.564,1.564,0,0,1,1.564-1.564H57.49a1.564,1.564,0,0,1,1.564,1.564v7.821Z" transform="translate(-2.743 10.284)"/><path class="a" d="M52.8,51.823a1.564,1.564,0,0,1-1.564,1.564H44.976a1.564,1.564,0,0,1-1.564-1.564V46.9C29.178,45.536,14.587,38.584,9,35.679V73.721a4.693,4.693,0,0,0,4.693,4.693H82.516a4.693,4.693,0,0,0,4.693-4.693V35.679C81.622,38.584,67.031,45.533,52.8,46.9Z" transform="translate(-2.743 18.565)"/><path class="a" d="M36.128,42.1V39H33v9.385h3.128V42.1Z" transform="translate(10.797 20.439)"/><g transform="translate(0 0)"><path class="b" d="M53.49,1H9.693A4.693,4.693,0,0,0,5,5.693V74.516a4.693,4.693,0,0,0,4.693,4.693h43.8a4.693,4.693,0,0,0,4.693-4.693V5.693A4.693,4.693,0,0,0,53.49,1Zm1.564,73.516a1.564,1.564,0,0,1-1.564,1.564H9.693a1.564,1.564,0,0,1-1.564-1.564V5.693A1.564,1.564,0,0,1,9.693,4.128h43.8a1.564,1.564,0,0,1,1.564,1.564Z" transform="translate(-5 -1)"/><path class="b" d="M43.848,36H12.564a1.564,1.564,0,0,0,0,3.128H43.848a1.564,1.564,0,0,0,0-3.128Z" transform="translate(-1.615 18.746)"/><path class="b" d="M43.848,30H12.564a1.564,1.564,0,1,0,0,3.128H43.848a1.564,1.564,0,0,0,0-3.128Z" transform="translate(-1.615 15.361)"/><path class="b" d="M43.848,42H12.564a1.564,1.564,0,0,0,0,3.128H43.848a1.564,1.564,0,0,0,0-3.128Z" transform="translate(-1.615 22.131)"/><path class="b" d="M27.642,36.284A15.642,15.642,0,1,0,12,20.642,15.642,15.642,0,0,0,27.642,36.284Zm0-3.128a12.474,12.474,0,0,1-9.3-4.169,10.885,10.885,0,0,1,18.589,0,12.468,12.468,0,0,1-9.291,4.169ZM24.513,17.513a3.128,3.128,0,1,1,3.128,3.128A3.128,3.128,0,0,1,24.513,17.513Zm3.128-9.385A12.487,12.487,0,0,1,38.83,26.212a13.668,13.668,0,0,0-6.4-4.719,6.257,6.257,0,1,0-9.57,0,13.876,13.876,0,0,0-6.413,4.716A12.487,12.487,0,0,1,27.642,8.128Z" transform="translate(-1.051 1.257)"/></g></svg>