<svg xmlns="http://www.w3.org/2000/svg" width="78.207" height="96.979" viewBox="0 0 78.207 96.979"><defs><style>.a{fill:#e1f3fc;}.b{fill:#153e5c;}</style></defs><path class="a" d="M46.206,19A17.206,17.206,0,1,0,63.412,36.206,17.206,17.206,0,0,0,46.206,19ZM56.753,34.343,51.723,38l1.921,5.916a1.564,1.564,0,0,1-2.407,1.747L46.206,42l-5.03,3.655a1.564,1.564,0,0,1-2.407-1.747L40.689,38l-5.03-3.655a1.564,1.564,0,0,1,.92-2.826H42.8L44.718,25.6a1.564,1.564,0,0,1,2.972,0l1.926,5.913h6.218a1.564,1.564,0,0,1,.92,2.826Z" transform="translate(5.412 9.155)"/><path class="a" d="M49.59,13A26.575,26.575,0,0,0,29.256,56.7V83.388a1.564,1.564,0,0,0,2.67,1.106l3.587-3.588v8.739a1.564,1.564,0,0,0,2.67,1.106L49.59,79.341,61,90.747a1.564,1.564,0,0,0,2.67-1.1V80.906l3.587,3.585a1.564,1.564,0,0,0,2.67-1.1V56.7A26.575,26.575,0,0,0,49.59,13ZM35.513,76.481l-3.128,3.128V59.871a37.034,37.034,0,0,0,3.128,2.284ZM66.8,79.609l-3.128-3.128V62.154A34.184,34.184,0,0,0,66.8,59.871ZM49.59,59.925A20.334,20.334,0,1,1,69.925,39.591,20.334,20.334,0,0,1,49.59,59.925Z" transform="translate(2.028 5.77)"/><g transform="translate(0 0)"><path class="b" d="M20.564,12.128H33.078a1.564,1.564,0,1,0,0-3.128H20.564a1.564,1.564,0,1,0,0,3.128Z" transform="translate(-0.23 3.513)"/><path class="b" d="M60.182,43.374V5.693A4.693,4.693,0,0,0,55.49,1h-43.8A4.693,4.693,0,0,0,7,5.693V74.516a4.693,4.693,0,0,0,4.693,4.693H53.925a1.694,1.694,0,0,0,1.095-.454l3.6-3.591L62.2,78.751a1.564,1.564,0,0,0,2.67-1.106V59.594a9.363,9.363,0,0,0-4.693-16.221ZM52.361,76.081H11.693a1.564,1.564,0,0,1-1.564-1.564V5.693a1.564,1.564,0,0,1,1.564-1.564h43.8a1.564,1.564,0,0,1,1.564,1.564v37.67a9.385,9.385,0,0,0-4.693,16.249Zm9.385-2.212-2.022-2.022a1.564,1.564,0,0,0-2.212,0L55.49,73.869V61.474a9.52,9.52,0,0,0,6.257,0Zm.626-16.246a6.352,6.352,0,0,1-7.5,0,6.257,6.257,0,1,1,7.508,0Z" transform="translate(-7 -1)"/><path class="b" d="M41.591,17H16.564a1.564,1.564,0,0,0,0,3.128H41.591a1.564,1.564,0,1,0,0-3.128Z" transform="translate(-2.487 8.027)"/><path class="b" d="M41.591,24H16.564a1.564,1.564,0,0,0,0,3.128H41.591a1.564,1.564,0,0,0,0-3.128Z" transform="translate(-2.487 11.976)"/><path class="b" d="M41.591,31H16.564a1.564,1.564,0,0,0,0,3.128H41.591a1.564,1.564,0,1,0,0-3.128Z" transform="translate(-2.487 15.925)"/></g></svg>