<svg xmlns="http://www.w3.org/2000/svg" width="96.979" height="97.001" viewBox="0 0 96.979 97.001"><defs><style>.a{fill:#e1f3fc;}.b{fill:#153e5c;}</style></defs><g transform="translate(24.759 18.792)"><path class="a" d="M86.93,38.642V30.821a4.693,4.693,0,0,0-4.693-4.693H69.724a4.693,4.693,0,0,0-4.693,4.693V23h-21.9v5.863a4.683,4.683,0,0,0-3.777-3.15L26.961,23.992a4.693,4.693,0,0,0-5.295,4l-1.081,7.746,21.689,3.024.859-6.158V80.875a4.693,4.693,0,0,0,4.693,4.693H60.339a4.693,4.693,0,0,0,4.693-4.693,4.693,4.693,0,0,0,4.693,4.693H82.237a4.693,4.693,0,0,0,4.693-4.693V73.054h-21.9V69.925h21.9V41.77h-21.9V38.642ZM58.774,48.027a1.564,1.564,0,0,1-1.564,1.564H50.954a1.564,1.564,0,0,1-1.564-1.564V27.693a1.564,1.564,0,0,1,1.564-1.564H57.21a1.564,1.564,0,0,1,1.564,1.564Zm15.642-1.564a1.564,1.564,0,0,1,3.128,0v18.77a1.564,1.564,0,0,1-3.128,0Z" transform="translate(-14.71 -7.358)"/><path class="a" d="M21.711,33.12,17.824,61l21.69,3.024L43.4,36.144Z" transform="translate(-16.268 -1.649)"/><path class="a" d="M17.954,52.928l-1.079,7.747a4.693,4.693,0,0,0,4,5.295L33.267,67.7a4.7,4.7,0,0,0,5.295-4l1.079-7.746Z" transform="translate(-16.829 9.526)"/><path class="a" d="M41,27h3.128V44.206H41Z" transform="translate(-3.192 -5.102)"/><path class="a" d="M56.9,17.693A4.693,4.693,0,0,0,52.206,13H39.693A4.693,4.693,0,0,0,35,17.693v7.821H56.9Z" transform="translate(-6.577 -13)"/></g><path class="b" d="M74.516,44.8V32.526a1.564,1.564,0,0,0-.876-1.408,23.832,23.832,0,0,0-14.021-1.66,21.071,21.071,0,0,0-12.8-8.874,10.949,10.949,0,1,0-13.427,0,21.116,21.116,0,0,0-12.811,8.87A23.84,23.84,0,0,0,6.568,31.121a1.564,1.564,0,0,0-.876,1.408V44.8A4.693,4.693,0,0,0,1,49.5v6.257a4.693,4.693,0,0,0,4.693,4.693V71.208A1.564,1.564,0,0,0,7.743,72.7,31.585,31.585,0,0,1,39.01,78.771a1.564,1.564,0,0,0,2.19,0A32.009,32.009,0,0,1,72.466,72.7a1.564,1.564,0,0,0,2.051-1.489V60.447a4.693,4.693,0,0,0,4.693-4.693V49.5A4.693,4.693,0,0,0,74.516,44.8ZM32.284,11.957A7.821,7.821,0,1,1,40.1,19.778,7.821,7.821,0,0,1,32.284,11.957ZM7.257,57.318H5.693a1.564,1.564,0,0,1-1.564-1.564V49.5a1.564,1.564,0,0,1,1.564-1.564H7.257A1.564,1.564,0,0,1,8.821,49.5v6.257A1.564,1.564,0,0,1,7.257,57.318ZM38.54,74.368A34.748,34.748,0,0,0,8.821,69.109v-8.95a4.693,4.693,0,0,0,3.128-4.4V49.5a4.693,4.693,0,0,0-3.128-4.4V33.543c8.841-3.646,21.568,1.157,29.719,5.9ZM40.1,36.718A61.851,61.851,0,0,0,23.965,30.1c2.048-2.642,6.911-7.2,16.139-7.2,9.307,0,14.125,4.547,16.149,7.2A61.892,61.892,0,0,0,40.1,36.72ZM71.388,69.109a34.761,34.761,0,0,0-29.719,5.259V39.435c8.146-4.744,20.913-9.541,29.719-5.9V45.093a4.693,4.693,0,0,0-3.128,4.4v6.257a4.693,4.693,0,0,0,3.128,4.4Zm4.693-13.355a1.564,1.564,0,0,1-1.564,1.564H72.952a1.564,1.564,0,0,1-1.564-1.564V49.5a1.564,1.564,0,0,1,1.564-1.564h1.564A1.564,1.564,0,0,1,76.081,49.5Z" transform="translate(-1 -0.986)"/></svg>